<svg width="1132" height="438" viewBox="0 0 1132 438" fill="none" xmlns="http://www.w3.org/2000/svg">
<g clip-path="url(#clip0_79_29)">
<rect width="1131" height="438" transform="translate(0.6875)" fill="white"/>
<path d="M162.034 169.321L155.8 163.087C155.167 162.454 154.85 162.137 154.604 161.851C151.11 157.826 151.11 151.842 154.604 147.813C154.854 147.527 155.171 147.21 155.8 146.576C160.361 142.016 167.75 142.016 172.311 146.576L197.077 171.343L208.791 183.056L216.265 190.531C218.662 192.699 218.175 192.2 218.943 192.985C223.182 188.746 225.829 185.698 229.399 182.128C228.953 181.682 228.868 181.596 227.315 180.092L207.928 160.342L195.584 147.813L183.204 135.452C172.177 124.426 155.113 123.836 144.086 134.863L140.499 138.451C131.454 147.496 131.454 162.164 140.499 171.209C140.57 171.28 140.57 171.396 140.499 171.472C131.454 180.517 131.454 195.185 140.499 204.23L144.087 207.818C155.113 218.849 173.136 219.103 184.163 208.072L209.059 183.325L197.077 171.338L172.945 195.471C172.896 195.52 172.869 195.546 172.846 195.569C167.978 200.393 160.133 200.393 155.265 195.569C155.242 195.546 155.22 195.524 155.171 195.475L155.162 195.475L155.162 195.466C155.117 195.421 155.095 195.399 155.077 195.381C150.945 191.209 150.945 184.484 155.077 180.312C155.086 180.303 155.1 180.29 155.117 180.272L155.162 180.227L162.034 173.355C162.739 172.65 163.096 172.293 163.226 171.887C163.342 171.53 163.342 171.142 163.226 170.785C163.092 170.379 162.739 170.026 162.034 169.317L162.034 169.321Z" fill="url(#paint0_linear_79_29)"/>
<path fill-rule="evenodd" clip-rule="evenodd" d="M264.438 127.502C275.469 116.476 276.27 98.9186 265.239 87.8921L261.651 84.3044C252.606 75.2592 237.938 75.2592 228.893 84.3044C228.822 84.3758 228.701 84.3758 228.63 84.3044C219.585 75.2592 204.917 75.2592 195.872 84.3044L192.284 87.8921C181.257 98.9186 182.45 115.732 193.476 126.759L217.459 150.907L207.967 160.452L219.576 172.239L264.438 127.502ZM228.433 139.921L205.336 116.832C205.214 116.708 205.075 116.571 204.984 116.48C204.779 116.273 204.547 116.052 204.432 115.928C200.001 111.14 199.812 104.166 204.243 99.3783C204.408 99.1998 204.609 98.999 205.015 98.5929C205.332 98.2761 205.492 98.1154 205.635 97.9815C209.468 94.4206 215.314 94.1484 219.46 97.339C219.573 97.4264 219.693 97.5256 219.884 97.6827C219.956 97.742 220.038 97.8096 220.133 97.8878L226.939 103.533L226.952 103.546C227.59 104.077 227.911 104.34 228.273 104.443C228.59 104.532 228.929 104.532 229.25 104.443C229.603 104.34 229.919 104.086 230.54 103.573L230.589 103.533L237.394 97.8878C237.494 97.8053 237.58 97.7344 237.656 97.6724C237.841 97.5198 237.96 97.4215 238.068 97.339C242.213 94.1484 248.059 94.4206 251.892 97.9815C252.035 98.1154 252.196 98.2716 252.512 98.5929L252.514 98.5944C252.919 98.9993 253.119 99.2 253.284 99.3783C257.715 104.166 257.053 110.945 252.621 115.733C252.516 115.847 252.319 116.042 252.084 116.274C251.952 116.404 251.808 116.547 251.661 116.694L228.433 139.921Z" fill="url(#paint1_linear_79_29)"/>
<path d="M296.34 175.195L303.212 182.067L303.217 182.076C303.257 182.116 303.275 182.134 303.293 182.152C307.425 186.324 307.425 193.049 303.293 197.222L303.208 197.306C303.159 197.355 303.132 197.382 303.11 197.405C298.241 202.228 290.396 202.228 285.528 197.405C285.506 197.382 285.479 197.355 285.43 197.306L261.297 173.174L249.381 161.226L239.949 151.826L229.035 162.735L252.7 185.54L275.964 208.595C286.991 219.626 303.257 220.68 314.288 209.649L317.876 206.062C326.921 197.016 326.921 182.349 317.876 173.303C317.804 173.232 317.804 173.111 317.876 173.04C326.921 163.995 326.921 149.327 317.876 140.282L314.288 136.694C303.257 125.668 285.23 125.425 274.203 136.451L249.381 161.226L261.297 173.174L285.43 149.041C285.479 148.992 285.506 148.966 285.528 148.943C290.396 144.124 298.241 144.124 303.11 148.943C303.132 148.966 303.159 148.992 303.208 149.041L303.293 149.126C307.425 153.299 307.425 160.023 303.293 164.196L303.208 164.28L296.336 171.152C295.626 171.862 295.274 172.215 295.144 172.621C295.028 172.978 295.028 173.366 295.144 173.723C295.278 174.129 295.631 174.481 296.336 175.191L296.34 175.195Z" fill="url(#paint2_linear_79_29)"/>
<path d="M157.782 142.114C151.035 145.733 147.795 153.618 151.753 160.513C152.445 161.753 153.431 162.864 154.413 163.886L157.447 167.202C157.724 167.505 159.094 169.009 159.339 169.277L159.527 169.486C160.276 170.2 160.392 171.454 159.75 172.271C158.215 174.096 155.702 176.965 154.132 178.808C152.235 180.981 150.713 183.53 150.12 186.301C148.982 192.195 152.512 197.903 157.443 201.018C150.124 197.604 146.193 189.014 150.254 181.593C151.427 179.161 154.002 176.35 155.734 174.275C156.398 173.476 157.617 172.052 158.268 171.267C158.389 171.151 158.433 170.95 158.331 170.807L157.648 170.044C156.3 168.532 153.761 165.702 152.418 164.167C145.76 156.711 148.558 145.751 157.782 142.11L157.782 142.114Z" fill="white"/>
<path d="M258.21 99.1464C253.993 91.596 244.939 88.8651 237.955 94.4698C237.214 95.099 236.076 96.161 235.349 96.8215C234.474 97.6024 232.212 99.6238 231.364 100.378C230.802 100.905 230.15 101.543 229.311 101.489C228.481 101.525 227.848 100.873 227.294 100.374C226.009 99.2267 224.568 97.9817 223.305 96.8215C219.945 93.6175 216.018 90.5965 211.141 90.6589C216.022 89.7932 220.659 92.6982 224.211 95.7639C225.791 97.0223 227.473 98.419 229.039 99.7041C229.213 99.8469 229.41 99.8246 229.557 99.6997L230.208 99.1017L231.525 97.9014C233.055 96.5091 235.295 94.4341 236.862 93.1177C244.416 87.1248 254.818 90.2216 258.21 99.1508L258.21 99.1464Z" fill="white"/>
<path d="M309.89 155.38C310.894 159.994 308.328 164.568 305.415 167.937C303.991 169.687 302.389 171.579 300.903 173.288C300.894 173.297 300.858 173.337 300.872 173.328C300.885 173.31 300.912 173.27 300.912 173.257C300.912 173.23 300.894 173.324 300.903 173.431C300.948 174.015 301.331 174.341 301.755 174.854C302.46 175.68 303.241 176.586 303.92 177.429C304.607 178.263 305.365 179.187 306.035 180.048C307.208 181.543 307.963 183.337 308.824 185.002C307.342 183.31 306.146 181.436 304.468 179.955C303.148 178.652 301.822 177.299 300.546 175.952C300.287 175.662 300.042 175.47 299.721 175.028C299.194 174.252 298.877 173.096 299.515 172.226C299.636 172.083 301.032 170.414 301.193 170.227C304.915 165.809 309.743 161.641 309.895 155.385L309.89 155.38Z" fill="white"/>
<path d="M305.574 163.028C306.789 162.987 307.857 163.742 308.356 164.702C308.523 165.024 308.61 165.388 308.568 165.772C308.186 165.58 307.917 165.378 307.641 165.186C306.812 164.551 306.115 163.92 305.574 163.028Z" fill="white"/>
<path d="M219.216 193.289L244.732 218.591C249.292 223.151 249.292 230.541 244.732 235.102C237.797 242.241 233.942 247.619 226.726 254.21C226.53 254.388 226.356 254.553 226.159 254.776C207.101 276.316 227.311 290.622 230.747 300.48C231.501 280.27 235.24 266.048 252.688 250.555C252.8 250.452 252.911 250.35 253.018 250.243L256.445 246.815C267.472 235.789 267.414 218.19 256.388 207.164L229.706 182.16L219.216 193.289Z" fill="url(#paint3_linear_79_29)"/>
<path d="M241.465 192.96L216.192 218.604C211.633 223.163 211.634 230.556 216.193 235.116C223.222 242.352 227.089 247.778 234.495 254.493C251.763 273.238 233.632 289.881 230.18 299.79C229.424 279.513 225.662 265.967 208.068 250.418L204.478 246.828C193.45 235.8 193.45 217.919 204.478 206.89L229.917 180.898L241.465 192.96Z" fill="#2D91E2"/>
<path d="M229.917 180.898L241.465 192.96L250.806 183.605L238.772 172.043L229.917 180.898Z" fill="#2D91E2"/>
<path d="M419.6 235.998C408.679 235.998 399.356 234 391.631 230.004C383.906 226.009 377.047 220.215 371.053 212.623L383.839 199.837C388.235 205.964 393.296 210.625 399.023 213.822C404.75 216.885 411.809 218.417 420.2 218.417C428.458 218.417 435.05 216.619 439.978 213.023C445.039 209.427 447.57 204.499 447.57 198.239C447.57 193.044 446.371 188.849 443.974 185.653C441.577 182.456 438.313 179.859 434.185 177.861C430.189 175.73 425.794 173.865 420.999 172.267C416.204 170.536 411.409 168.738 406.615 166.873C401.82 164.875 397.425 162.478 393.429 159.681C389.433 156.751 386.17 152.955 383.64 148.293C381.242 143.632 380.043 137.771 380.043 130.712C380.043 122.854 381.908 116.195 385.637 110.734C389.5 105.14 394.694 100.878 401.22 97.9478C407.88 94.8845 415.338 93.3528 423.596 93.3528C432.653 93.3528 440.777 95.1509 447.97 98.7469C455.162 102.21 461.022 106.805 465.551 112.532L452.764 125.318C448.636 120.523 444.174 116.927 439.379 114.53C434.717 112.132 429.323 110.934 423.197 110.934C415.738 110.934 409.811 112.599 405.416 115.928C401.021 119.125 398.823 123.653 398.823 129.514C398.823 134.175 400.022 137.971 402.419 140.901C404.95 143.698 408.213 146.096 412.208 148.093C416.204 150.091 420.599 151.956 425.394 153.687C430.322 155.286 435.184 157.084 439.978 159.081C444.773 161.079 449.168 163.61 453.164 166.673C457.16 169.736 460.356 173.732 462.754 178.66C465.284 183.455 466.549 189.515 466.549 196.84C466.549 209.094 462.287 218.683 453.763 225.609C445.372 232.535 433.985 235.998 419.6 235.998ZM555.376 235.998C545.387 235.998 536.131 234.2 527.607 230.604C519.082 226.874 511.624 221.747 505.231 215.22C498.971 208.694 494.11 201.102 490.647 192.445C487.184 183.788 485.452 174.531 485.452 164.675C485.452 154.686 487.184 145.363 490.647 136.706C494.11 128.048 498.971 120.523 505.231 114.13C511.624 107.604 519.016 102.543 527.407 98.9467C535.931 95.2174 545.187 93.3528 555.177 93.3528C566.098 93.3528 575.688 95.2174 583.945 98.9467C592.203 102.676 599.528 107.737 605.921 114.13L592.936 127.116C588.54 122.188 583.146 118.326 576.753 115.529C570.493 112.732 563.301 111.333 555.177 111.333C547.851 111.333 541.125 112.665 534.999 115.329C528.872 117.86 523.544 121.522 519.016 126.317C514.487 131.112 510.958 136.772 508.427 143.299C506.03 149.825 504.831 156.95 504.831 164.675C504.831 172.4 506.03 179.526 508.427 186.052C510.958 192.578 514.487 198.239 519.016 203.034C523.544 207.828 528.872 211.558 534.999 214.221C541.125 216.752 547.851 218.017 555.177 218.017C563.834 218.017 571.359 216.619 577.752 213.822C584.145 210.892 589.539 206.963 593.934 202.035L606.92 214.821C600.527 221.48 593.002 226.675 584.345 230.404C575.821 234.133 566.165 235.998 555.376 235.998Z" fill="#0E46A0"/>
<path d="M629.991 234V95.3506H648.77V234H629.991ZM642.777 234V216.819H722.29V234H642.777ZM642.777 171.268V154.886H715.698V171.268H642.777ZM642.777 112.532V95.3506H721.291V112.532H642.777ZM747.831 234V95.3506H761.017L766.611 117.127V234H747.831ZM843.727 234L758.62 120.324L761.017 95.3506L846.324 208.827L843.727 234ZM843.727 234L838.133 213.422V95.3506H856.913V234H843.727ZM926.429 234V99.3463H945.209V234H926.429ZM879.281 112.532V95.3506H992.158V112.532H879.281Z" fill="url(#paint4_linear_79_29)"/>
<path d="M364.664 259.89H998.261" stroke="#8ECDFF" stroke-width="1.42702"/>
<path d="M381.844 313.372C381.844 315.488 381.844 317.558 381.844 319.582C381.875 321.606 381.905 323.615 381.936 325.608H384.558C387.686 325.608 390.109 324.489 391.826 322.25C393.543 320.011 394.402 316.853 394.402 312.774C394.402 308.573 393.559 305.368 391.872 303.16C390.185 300.952 387.839 299.848 384.834 299.848H381.936C381.905 301.811 381.875 303.789 381.844 305.782C381.844 307.775 381.844 309.769 381.844 311.762V313.372ZM371.954 299.664V297.502H385.57C388.667 297.502 391.351 298.1 393.62 299.296C395.92 300.492 397.699 302.225 398.956 304.494C400.213 306.763 400.842 309.508 400.842 312.728C400.842 315.979 400.152 318.739 398.772 321.008C397.392 323.277 395.491 325.01 393.068 326.206C390.645 327.402 387.855 328 384.696 328H371.954V325.838L375.818 325.424C375.879 323.492 375.91 321.529 375.91 319.536C375.91 317.543 375.91 315.488 375.91 313.372V311.762C375.91 309.83 375.91 307.898 375.91 305.966C375.91 304.003 375.879 302.041 375.818 300.078L371.954 299.664ZM406.594 328V326.114L409.538 325.562C409.568 324.397 409.584 323.155 409.584 321.836C409.584 320.487 409.584 319.321 409.584 318.34V315.902C409.584 314.645 409.568 313.648 409.538 312.912C409.538 312.145 409.507 311.302 409.446 310.382L406.226 309.968V308.22L413.908 305.322L414.644 305.782L415.104 311.21C415.809 309.309 416.76 307.852 417.956 306.84C419.152 305.828 420.348 305.322 421.544 305.322C422.372 305.322 423.123 305.537 423.798 305.966C424.503 306.395 424.963 307.009 425.178 307.806C425.147 308.941 424.871 309.83 424.35 310.474C423.828 311.087 423.108 311.394 422.188 311.394C421.084 311.394 420.041 310.842 419.06 309.738L418.646 309.278C417.02 310.627 415.855 312.529 415.15 314.982V318.34C415.15 319.291 415.15 320.425 415.15 321.744C415.15 323.032 415.165 324.243 415.196 325.378L418.968 326.114V328H406.594ZM430.131 328.644C429.088 328.644 428.214 328.291 427.509 327.586C426.804 326.85 426.451 325.991 426.451 325.01C426.451 323.967 426.804 323.078 427.509 322.342C428.214 321.606 429.088 321.238 430.131 321.238C431.174 321.238 432.048 321.606 432.753 322.342C433.458 323.078 433.811 323.967 433.811 325.01C433.811 325.991 433.458 326.85 432.753 327.586C432.048 328.291 431.174 328.644 430.131 328.644ZM463.041 328.782C461.324 328.782 459.622 328.567 457.935 328.138C456.248 327.709 454.807 327.111 453.611 326.344L453.887 319.72H457.429L458.349 325.286C459.054 325.593 459.775 325.838 460.511 326.022C461.247 326.175 462.075 326.252 462.995 326.252C464.896 326.252 466.384 325.807 467.457 324.918C468.561 323.998 469.113 322.787 469.113 321.284C469.113 319.935 468.73 318.877 467.963 318.11C467.196 317.343 465.97 316.623 464.283 315.948L462.397 315.166C459.882 314.093 457.874 312.805 456.371 311.302C454.899 309.799 454.163 307.837 454.163 305.414C454.163 303.605 454.623 302.056 455.543 300.768C456.463 299.449 457.736 298.453 459.361 297.778C461.017 297.073 462.918 296.72 465.065 296.72C466.66 296.72 468.147 296.935 469.527 297.364C470.907 297.793 472.118 298.376 473.161 299.112L472.839 305.322H469.343L468.423 299.986C467.35 299.495 466.2 299.25 464.973 299.25C463.44 299.25 462.136 299.664 461.063 300.492C459.99 301.289 459.453 302.439 459.453 303.942C459.453 305.261 459.867 306.334 460.695 307.162C461.523 307.99 462.688 308.711 464.191 309.324L466.169 310.152C469.174 311.409 471.306 312.759 472.563 314.2C473.851 315.641 474.495 317.497 474.495 319.766C474.495 322.465 473.468 324.642 471.413 326.298C469.389 327.954 466.598 328.782 463.041 328.782ZM504.433 307.898V305.966H512.851V307.898L510.321 308.358L503.467 328.184H500.891L495.279 312.59L489.575 328.184H487.045L479.731 308.266L477.339 307.898V305.966H488.609V307.898L485.481 308.358L489.713 321.33L494.313 308.358L491.231 307.898V305.966H501.903V307.898L498.913 308.404L503.467 321.192L507.469 308.404L504.433 307.898ZM533.638 328.552C532.411 328.552 531.415 328.245 530.648 327.632C529.881 327.019 529.36 326.175 529.084 325.102C527.949 326.267 526.922 327.157 526.002 327.77C525.082 328.353 523.886 328.644 522.414 328.644C520.697 328.644 519.24 328.153 518.044 327.172C516.879 326.16 516.296 324.719 516.296 322.848C516.296 321.867 516.526 320.962 516.986 320.134C517.446 319.275 518.259 318.478 519.424 317.742C520.62 317.006 522.322 316.285 524.53 315.58C525.143 315.365 525.833 315.151 526.6 314.936C527.367 314.721 528.149 314.507 528.946 314.292V313.004C528.946 310.857 528.639 309.416 528.026 308.68C527.443 307.913 526.401 307.53 524.898 307.53C524.622 307.53 524.315 307.545 523.978 307.576C523.671 307.607 523.349 307.653 523.012 307.714L522.46 310.244C522.337 311.348 522.015 312.161 521.494 312.682C520.973 313.203 520.329 313.464 519.562 313.464C518.09 313.464 517.231 312.774 516.986 311.394C517.262 309.554 518.243 308.082 519.93 306.978C521.647 305.874 523.901 305.322 526.692 305.322C529.36 305.322 531.307 305.966 532.534 307.254C533.761 308.511 534.374 310.643 534.374 313.648V323.676C534.374 325.056 534.819 325.746 535.708 325.746C536.291 325.746 536.827 325.409 537.318 324.734L538.376 325.654C537.824 326.697 537.165 327.448 536.398 327.908C535.662 328.337 534.742 328.552 533.638 328.552ZM521.678 321.882C521.678 323.078 521.985 323.952 522.598 324.504C523.242 325.025 524.024 325.286 524.944 325.286C525.465 325.286 525.987 325.163 526.508 324.918C527.029 324.673 527.842 324.167 528.946 323.4V316.132C528.302 316.347 527.689 316.546 527.106 316.73C526.554 316.914 526.079 317.083 525.68 317.236C524.147 317.849 523.089 318.555 522.506 319.352C521.954 320.149 521.678 320.993 521.678 321.882ZM541.32 338.718V336.832L544.448 336.234C544.479 334.885 544.494 333.581 544.494 332.324C544.525 331.097 544.54 329.901 544.54 328.736V315.902C544.54 314.645 544.525 313.648 544.494 312.912C544.494 312.145 544.463 311.302 544.402 310.382L541.182 309.968V308.22L548.818 305.322L549.554 305.782L549.784 308.588C551.869 306.411 554.169 305.322 556.684 305.322C558.34 305.322 559.843 305.782 561.192 306.702C562.541 307.591 563.599 308.895 564.366 310.612C565.163 312.329 565.562 314.415 565.562 316.868C565.562 319.291 565.117 321.391 564.228 323.17C563.369 324.918 562.219 326.267 560.778 327.218C559.337 328.169 557.727 328.644 555.948 328.644C554.813 328.644 553.755 328.429 552.774 328C551.793 327.571 550.857 326.881 549.968 325.93V328.69C549.968 329.825 549.968 331.005 549.968 332.232C549.999 333.489 550.029 334.793 550.06 336.142L553.648 336.832V338.718H541.32ZM554.522 308.588C553.817 308.588 553.096 308.772 552.36 309.14C551.655 309.508 550.903 309.999 550.106 310.612V323.63C551.394 324.826 552.759 325.424 554.2 325.424C555.733 325.424 557.021 324.765 558.064 323.446C559.137 322.097 559.674 319.996 559.674 317.144C559.674 314.323 559.199 312.191 558.248 310.75C557.297 309.309 556.055 308.588 554.522 308.588ZM571.114 328V326.114L574.104 325.516C574.135 324.381 574.15 323.155 574.15 321.836C574.15 320.487 574.15 319.321 574.15 318.34V315.902C574.15 314.645 574.135 313.648 574.104 312.912C574.104 312.145 574.074 311.302 574.012 310.382L570.792 309.968V308.22L578.474 305.322L579.21 305.782L579.532 309.324C581.894 306.656 584.5 305.322 587.352 305.322C589.346 305.322 590.879 305.981 591.952 307.3C593.056 308.619 593.608 310.704 593.608 313.556V318.34C593.608 319.383 593.608 320.563 593.608 321.882C593.608 323.201 593.624 324.427 593.654 325.562L596.46 326.114V328H585.098V326.114L588.042 325.516C588.073 324.381 588.088 323.17 588.088 321.882C588.088 320.563 588.088 319.383 588.088 318.34V313.97C588.088 312.161 587.843 310.919 587.352 310.244C586.862 309.539 586.034 309.186 584.868 309.186C583.243 309.186 581.526 309.937 579.716 311.44V318.34C579.716 319.352 579.716 320.517 579.716 321.836C579.716 323.155 579.732 324.397 579.762 325.562L582.476 326.114V328H571.114ZM618.882 328.552C617.655 328.552 616.658 328.245 615.892 327.632C615.125 327.019 614.604 326.175 614.328 325.102C613.193 326.267 612.166 327.157 611.246 327.77C610.326 328.353 609.13 328.644 607.658 328.644C605.94 328.644 604.484 328.153 603.288 327.172C602.122 326.16 601.54 324.719 601.54 322.848C601.54 321.867 601.77 320.962 602.23 320.134C602.69 319.275 603.502 318.478 604.668 317.742C605.864 317.006 607.566 316.285 609.774 315.58C610.387 315.365 611.077 315.151 611.844 314.936C612.61 314.721 613.392 314.507 614.19 314.292V313.004C614.19 310.857 613.883 309.416 613.27 308.68C612.687 307.913 611.644 307.53 610.142 307.53C609.866 307.53 609.559 307.545 609.222 307.576C608.915 307.607 608.593 307.653 608.256 307.714L607.704 310.244C607.581 311.348 607.259 312.161 606.738 312.682C606.216 313.203 605.572 313.464 604.806 313.464C603.334 313.464 602.475 312.774 602.23 311.394C602.506 309.554 603.487 308.082 605.174 306.978C606.891 305.874 609.145 305.322 611.936 305.322C614.604 305.322 616.551 305.966 617.778 307.254C619.004 308.511 619.618 310.643 619.618 313.648V323.676C619.618 325.056 620.062 325.746 620.952 325.746C621.534 325.746 622.071 325.409 622.562 324.734L623.62 325.654C623.068 326.697 622.408 327.448 621.642 327.908C620.906 328.337 619.986 328.552 618.882 328.552ZM606.922 321.882C606.922 323.078 607.228 323.952 607.842 324.504C608.486 325.025 609.268 325.286 610.188 325.286C610.709 325.286 611.23 325.163 611.752 324.918C612.273 324.673 613.086 324.167 614.19 323.4V316.132C613.546 316.347 612.932 316.546 612.35 316.73C611.798 316.914 611.322 317.083 610.924 317.236C609.39 317.849 608.332 318.555 607.75 319.352C607.198 320.149 606.922 320.993 606.922 321.882ZM632.836 298.422C632.836 300.446 632.192 302.301 630.904 303.988C629.616 305.675 628.021 307.024 626.12 308.036L625.292 306.564C626.212 305.889 627.04 305.169 627.776 304.402C628.543 303.635 629.171 302.731 629.662 301.688L627.96 300.308C627.285 299.756 626.81 299.204 626.534 298.652C626.289 298.069 626.166 297.487 626.166 296.904C626.166 295.923 626.457 295.171 627.04 294.65C627.653 294.098 628.389 293.822 629.248 293.822C629.831 293.822 630.352 293.929 630.812 294.144C631.272 294.328 631.686 294.589 632.054 294.926C632.575 296.03 632.836 297.195 632.836 298.422ZM642.344 328.644C640.933 328.644 639.63 328.475 638.434 328.138C637.269 327.831 636.103 327.356 634.938 326.712L634.892 321.376H637.974L638.802 325.654C639.906 326.114 641.102 326.344 642.39 326.344C643.954 326.344 645.119 326.068 645.886 325.516C646.653 324.964 647.036 324.197 647.036 323.216C647.036 322.357 646.729 321.667 646.116 321.146C645.503 320.594 644.46 320.073 642.988 319.582L640.688 318.8C638.971 318.248 637.606 317.435 636.594 316.362C635.613 315.289 635.122 313.939 635.122 312.314C635.122 311.026 635.459 309.861 636.134 308.818C636.809 307.745 637.79 306.901 639.078 306.288C640.397 305.644 641.991 305.322 643.862 305.322C645.181 305.322 646.377 305.491 647.45 305.828C648.554 306.135 649.643 306.595 650.716 307.208L650.486 312.038H647.45L646.622 308.174C645.763 307.806 644.813 307.622 643.77 307.622C642.543 307.622 641.593 307.883 640.918 308.404C640.243 308.925 639.906 309.631 639.906 310.52C639.906 311.348 640.182 312.023 640.734 312.544C641.317 313.035 642.39 313.541 643.954 314.062L645.794 314.614C648.033 315.381 649.627 316.331 650.578 317.466C651.529 318.601 652.004 319.965 652.004 321.56C652.004 323.615 651.161 325.317 649.474 326.666C647.818 327.985 645.441 328.644 642.344 328.644ZM685.997 328.782C682.991 328.782 680.293 328.153 677.901 326.896C675.539 325.608 673.669 323.768 672.289 321.376C670.939 318.953 670.265 316.071 670.265 312.728C670.265 309.385 670.97 306.518 672.381 304.126C673.822 301.734 675.739 299.909 678.131 298.652C680.553 297.364 683.221 296.72 686.135 296.72C687.637 296.72 689.14 296.889 690.643 297.226C692.145 297.563 693.633 298.146 695.105 298.974L695.289 305.874H692.115L691.011 300.17C690.336 299.802 689.661 299.541 688.987 299.388C688.312 299.235 687.637 299.158 686.963 299.158C685.123 299.158 683.421 299.664 681.857 300.676C680.323 301.657 679.081 303.16 678.131 305.184C677.211 307.177 676.751 309.707 676.751 312.774C676.751 315.81 677.18 318.34 678.039 320.364C678.928 322.357 680.124 323.845 681.627 324.826C683.129 325.807 684.816 326.298 686.687 326.298C688.251 326.298 689.83 325.945 691.425 325.24L692.529 319.628H695.657L695.473 326.482C694.154 327.218 692.697 327.785 691.103 328.184C689.508 328.583 687.806 328.782 685.997 328.782ZM700.714 328V326.114L703.842 325.516C703.873 324.32 703.888 323.124 703.888 321.928C703.919 320.732 703.934 319.536 703.934 318.34V298.606L700.576 298.146V296.352L708.948 294.282L709.638 294.696L709.454 301.182V318.34C709.454 319.536 709.454 320.732 709.454 321.928C709.485 323.124 709.516 324.32 709.546 325.516L712.674 326.114V328H700.714ZM717.531 328V326.114L720.567 325.516C720.597 324.381 720.613 323.155 720.613 321.836C720.613 320.487 720.613 319.321 720.613 318.34V316.178C720.613 314.921 720.597 313.878 720.567 313.05C720.567 312.191 720.536 311.302 720.475 310.382L717.209 309.968V308.22L725.489 305.322L726.225 305.782L726.087 312.268V318.34C726.087 319.321 726.087 320.487 726.087 321.836C726.087 323.155 726.102 324.397 726.133 325.562L728.939 326.114V328H717.531ZM723.327 301.044C722.345 301.044 721.517 300.737 720.843 300.124C720.168 299.511 719.831 298.729 719.831 297.778C719.831 296.797 720.168 295.999 720.843 295.386C721.517 294.773 722.345 294.466 723.327 294.466C724.308 294.466 725.121 294.773 725.765 295.386C726.439 295.999 726.777 296.797 726.777 297.778C726.777 298.729 726.439 299.511 725.765 300.124C725.121 300.737 724.308 301.044 723.327 301.044ZM734.028 328V326.114L737.018 325.516C737.049 324.381 737.064 323.155 737.064 321.836C737.064 320.487 737.064 319.321 737.064 318.34V315.902C737.064 314.645 737.049 313.648 737.018 312.912C737.018 312.145 736.987 311.302 736.926 310.382L733.706 309.968V308.22L741.388 305.322L742.124 305.782L742.446 309.324C744.807 306.656 747.414 305.322 750.266 305.322C752.259 305.322 753.793 305.981 754.866 307.3C755.97 308.619 756.522 310.704 756.522 313.556V318.34C756.522 319.383 756.522 320.563 756.522 321.882C756.522 323.201 756.537 324.427 756.568 325.562L759.374 326.114V328H748.012V326.114L750.956 325.516C750.987 324.381 751.002 323.17 751.002 321.882C751.002 320.563 751.002 319.383 751.002 318.34V313.97C751.002 312.161 750.757 310.919 750.266 310.244C749.775 309.539 748.947 309.186 747.782 309.186C746.157 309.186 744.439 309.937 742.63 311.44V318.34C742.63 319.352 742.63 320.517 742.63 321.836C742.63 323.155 742.645 324.397 742.676 325.562L745.39 326.114V328H734.028ZM764.357 328V326.114L767.393 325.516C767.424 324.381 767.439 323.155 767.439 321.836C767.439 320.487 767.439 319.321 767.439 318.34V316.178C767.439 314.921 767.424 313.878 767.393 313.05C767.393 312.191 767.362 311.302 767.301 310.382L764.035 309.968V308.22L772.315 305.322L773.051 305.782L772.913 312.268V318.34C772.913 319.321 772.913 320.487 772.913 321.836C772.913 323.155 772.928 324.397 772.959 325.562L775.765 326.114V328H764.357ZM770.153 301.044C769.172 301.044 768.344 300.737 767.669 300.124C766.994 299.511 766.657 298.729 766.657 297.778C766.657 296.797 766.994 295.999 767.669 295.386C768.344 294.773 769.172 294.466 770.153 294.466C771.134 294.466 771.947 294.773 772.591 295.386C773.266 295.999 773.603 296.797 773.603 297.778C773.603 298.729 773.266 299.511 772.591 300.124C771.947 300.737 771.134 301.044 770.153 301.044ZM791.803 328.644C789.717 328.644 787.847 328.199 786.191 327.31C784.535 326.39 783.231 325.071 782.281 323.354C781.361 321.606 780.901 319.505 780.901 317.052C780.901 314.568 781.422 312.452 782.465 310.704C783.538 308.956 784.949 307.622 786.697 306.702C788.445 305.782 790.346 305.322 792.401 305.322C793.903 305.322 795.253 305.613 796.449 306.196C797.675 306.748 798.657 307.499 799.393 308.45C800.159 309.401 800.619 310.474 800.773 311.67C800.405 313.019 799.531 313.694 798.151 313.694C796.433 313.694 795.437 312.621 795.161 310.474L794.563 307.714C794.287 307.653 794.011 307.607 793.735 307.576C793.459 307.545 793.183 307.53 792.907 307.53C791.803 307.53 790.775 307.852 789.825 308.496C788.905 309.109 788.153 310.075 787.571 311.394C786.988 312.713 786.697 314.384 786.697 316.408C786.697 319.199 787.325 321.33 788.583 322.802C789.871 324.274 791.542 325.01 793.597 325.01C794.823 325.01 795.927 324.734 796.909 324.182C797.89 323.63 798.718 322.879 799.393 321.928L800.773 322.94C800.006 324.811 798.856 326.237 797.323 327.218C795.82 328.169 793.98 328.644 791.803 328.644ZM818.696 328V326.114L821.778 325.516C821.808 324.32 821.824 323.124 821.824 321.928C821.854 320.732 821.87 319.536 821.87 318.34V308.772H818.466V306.38L822.008 305.92C822.253 303.651 822.621 301.826 823.112 300.446C823.633 299.035 824.43 297.793 825.504 296.72C826.546 295.677 827.681 294.941 828.908 294.512C830.165 294.052 831.376 293.822 832.542 293.822C833.738 293.822 834.796 294.037 835.716 294.466C836.666 294.895 837.264 295.647 837.51 296.72C837.479 297.425 837.188 298.023 836.636 298.514C836.114 299.005 835.394 299.25 834.474 299.25C833.155 299.25 831.913 298.483 830.748 296.95L829.92 296.122C829.828 296.183 829.72 296.275 829.598 296.398C828.77 297.226 828.172 298.391 827.804 299.894C827.436 301.397 827.282 303.421 827.344 305.966H833.002V308.772H827.436V318.34C827.436 319.505 827.436 320.686 827.436 321.882C827.466 323.047 827.497 324.228 827.528 325.424L831.392 326.114V328H818.696ZM848.168 328.644C846.083 328.644 844.197 328.184 842.51 327.264C840.854 326.344 839.535 325.01 838.554 323.262C837.573 321.514 837.082 319.429 837.082 317.006C837.082 314.553 837.588 312.452 838.6 310.704C839.643 308.956 841.007 307.622 842.694 306.702C844.381 305.782 846.205 305.322 848.168 305.322C850.131 305.322 851.955 305.782 853.642 306.702C855.329 307.622 856.693 308.956 857.736 310.704C858.779 312.421 859.3 314.522 859.3 317.006C859.3 319.459 858.794 321.56 857.782 323.308C856.801 325.025 855.467 326.344 853.78 327.264C852.124 328.184 850.253 328.644 848.168 328.644ZM848.168 326.39C849.824 326.39 851.081 325.623 851.94 324.09C852.829 322.557 853.274 320.211 853.274 317.052C853.274 310.735 851.572 307.576 848.168 307.576C844.795 307.576 843.108 310.735 843.108 317.052C843.108 320.211 843.537 322.557 844.396 324.09C845.255 325.623 846.512 326.39 848.168 326.39ZM864.896 328V326.114L867.84 325.562C867.87 324.397 867.886 323.155 867.886 321.836C867.886 320.487 867.886 319.321 867.886 318.34V315.902C867.886 314.645 867.87 313.648 867.84 312.912C867.84 312.145 867.809 311.302 867.748 310.382L864.528 309.968V308.22L872.21 305.322L872.946 305.782L873.406 311.21C874.111 309.309 875.062 307.852 876.258 306.84C877.454 305.828 878.65 305.322 879.846 305.322C880.674 305.322 881.425 305.537 882.1 305.966C882.805 306.395 883.265 307.009 883.48 307.806C883.449 308.941 883.173 309.83 882.652 310.474C882.13 311.087 881.41 311.394 880.49 311.394C879.386 311.394 878.343 310.842 877.362 309.738L876.948 309.278C875.322 310.627 874.157 312.529 873.452 314.982V318.34C873.452 319.291 873.452 320.425 873.452 321.744C873.452 323.032 873.467 324.243 873.498 325.378L877.27 326.114V328H864.896ZM900.361 299.664V297.502H923.545L923.867 305.552H920.647L919.681 299.94H910.343C910.313 301.872 910.282 303.804 910.251 305.736C910.251 307.637 910.251 309.431 910.251 311.118H916.185L916.783 307.116H919.175V317.512H916.783L916.231 313.556H910.251C910.251 315.764 910.251 317.849 910.251 319.812C910.282 321.744 910.313 323.661 910.343 325.562H920.601L921.567 319.95H924.787L924.465 328H900.361V325.838L904.225 325.424C904.287 323.523 904.317 321.591 904.317 319.628C904.317 317.665 904.317 315.703 904.317 313.74V311.762C904.317 309.83 904.317 307.898 904.317 305.966C904.317 304.003 904.287 302.041 904.225 300.078L900.361 299.664ZM948.874 299.664V297.502H960.466V299.664L956.556 300.262V328.184H953.842L936.5 304.356V325.194L941.56 325.838V328H929.968V325.838L933.878 325.286V300.722L933.326 299.986L930.106 299.664V297.502H938.8L953.934 318.294V300.262L948.874 299.664ZM965.271 305.874L965.547 297.502H991.629L991.859 305.874H988.685L987.719 299.94H981.647C981.616 301.872 981.585 303.835 981.555 305.828C981.555 307.791 981.555 309.769 981.555 311.762V313.74C981.555 315.672 981.555 317.619 981.555 319.582C981.585 321.514 981.616 323.446 981.647 325.378L985.971 325.838V328H971.159V325.838L975.483 325.378C975.544 323.477 975.575 321.56 975.575 319.628C975.575 317.665 975.575 315.703 975.575 313.74V311.762C975.575 309.799 975.575 307.837 975.575 305.874C975.575 303.881 975.544 301.903 975.483 299.94H969.457L968.491 305.874H965.271Z" fill="#0E46A0"/>
<rect width="1131" height="44" transform="translate(1 378)" fill="#0E46A0"/>
<path d="M64.5234 392.154H66.8184L74.0645 403.775V392.154H75.9102V406.5H73.7324L66.3789 394.889V406.5H64.5234V392.154ZM82.8926 405.367C84.0579 405.367 84.8555 404.928 85.2852 404.049C85.7214 403.163 85.9395 402.18 85.9395 401.1C85.9395 400.123 85.7832 399.329 85.4707 398.717C84.9759 397.753 84.123 397.271 82.9121 397.271C81.8379 397.271 81.0566 397.682 80.5684 398.502C80.0801 399.322 79.8359 400.312 79.8359 401.471C79.8359 402.584 80.0801 403.512 80.5684 404.254C81.0566 404.996 81.8314 405.367 82.8926 405.367ZM82.9609 395.738C84.3086 395.738 85.4479 396.188 86.3789 397.086C87.3099 397.984 87.7754 399.306 87.7754 401.051C87.7754 402.737 87.3652 404.13 86.5449 405.23C85.7246 406.331 84.4518 406.881 82.7266 406.881C81.2878 406.881 80.1452 406.396 79.2988 405.426C78.4525 404.449 78.0293 403.141 78.0293 401.5C78.0293 399.742 78.4753 398.342 79.3672 397.301C80.2591 396.259 81.457 395.738 82.9609 395.738ZM90.2949 404.371H92.3359V406.5H90.2949V404.371ZM100.344 406.5C100.409 405.296 100.656 404.247 101.086 403.355C101.522 402.464 102.368 401.653 103.625 400.924L105.5 399.84C106.34 399.352 106.929 398.935 107.268 398.59C107.801 398.049 108.068 397.431 108.068 396.734C108.068 395.921 107.824 395.276 107.336 394.801C106.848 394.319 106.197 394.078 105.383 394.078C104.178 394.078 103.345 394.534 102.883 395.445C102.635 395.934 102.499 396.611 102.473 397.477H100.686C100.705 396.259 100.93 395.266 101.359 394.498C102.121 393.144 103.465 392.467 105.393 392.467C106.994 392.467 108.163 392.9 108.898 393.766C109.641 394.632 110.012 395.595 110.012 396.656C110.012 397.776 109.618 398.733 108.83 399.527C108.374 399.99 107.557 400.549 106.379 401.207L105.041 401.949C104.403 402.301 103.902 402.636 103.537 402.955C102.886 403.521 102.476 404.15 102.307 404.84H109.943V406.5H100.344ZM121.311 392.75V394.283C120.861 394.719 120.262 395.478 119.514 396.559C118.771 397.639 118.114 398.805 117.541 400.055C116.975 401.272 116.545 402.382 116.252 403.385C116.063 404.029 115.819 405.068 115.52 406.5H113.576C114.019 403.831 114.995 401.174 116.506 398.531C117.398 396.982 118.335 395.644 119.318 394.518H111.584V392.75H121.311ZM123.645 408.541C124.094 408.463 124.41 408.147 124.592 407.594C124.689 407.301 124.738 407.018 124.738 406.744C124.738 406.699 124.735 406.656 124.729 406.617C124.729 406.585 124.722 406.546 124.709 406.5H123.645V404.371H125.734V406.344C125.734 407.118 125.578 407.799 125.266 408.385C124.953 408.971 124.413 409.332 123.645 409.469V408.541ZM140.148 404.84C140.806 404.84 141.346 404.771 141.77 404.635C142.525 404.381 143.143 403.893 143.625 403.17C144.009 402.59 144.286 401.848 144.455 400.943C144.553 400.403 144.602 399.902 144.602 399.439C144.602 397.662 144.247 396.282 143.537 395.299C142.834 394.316 141.698 393.824 140.129 393.824H136.682V404.84H140.148ZM134.729 392.154H140.539C142.512 392.154 144.042 392.854 145.129 394.254C146.099 395.517 146.584 397.135 146.584 399.107C146.584 400.631 146.298 402.008 145.725 403.238C144.715 405.413 142.98 406.5 140.52 406.5H134.729V392.154ZM153.01 405.367C154.175 405.367 154.973 404.928 155.402 404.049C155.839 403.163 156.057 402.18 156.057 401.1C156.057 400.123 155.9 399.329 155.588 398.717C155.093 397.753 154.24 397.271 153.029 397.271C151.955 397.271 151.174 397.682 150.686 398.502C150.197 399.322 149.953 400.312 149.953 401.471C149.953 402.584 150.197 403.512 150.686 404.254C151.174 404.996 151.949 405.367 153.01 405.367ZM153.078 395.738C154.426 395.738 155.565 396.188 156.496 397.086C157.427 397.984 157.893 399.306 157.893 401.051C157.893 402.737 157.482 404.13 156.662 405.23C155.842 406.331 154.569 406.881 152.844 406.881C151.405 406.881 150.262 406.396 149.416 405.426C148.57 404.449 148.146 403.141 148.146 401.5C148.146 399.742 148.592 398.342 149.484 397.301C150.376 396.259 151.574 395.738 153.078 395.738ZM164.143 405.367C165.308 405.367 166.105 404.928 166.535 404.049C166.971 403.163 167.189 402.18 167.189 401.1C167.189 400.123 167.033 399.329 166.721 398.717C166.226 397.753 165.373 397.271 164.162 397.271C163.088 397.271 162.307 397.682 161.818 398.502C161.33 399.322 161.086 400.312 161.086 401.471C161.086 402.584 161.33 403.512 161.818 404.254C162.307 404.996 163.081 405.367 164.143 405.367ZM164.211 395.738C165.559 395.738 166.698 396.188 167.629 397.086C168.56 397.984 169.025 399.306 169.025 401.051C169.025 402.737 168.615 404.13 167.795 405.23C166.975 406.331 165.702 406.881 163.977 406.881C162.538 406.881 161.395 406.396 160.549 405.426C159.702 404.449 159.279 403.141 159.279 401.5C159.279 399.742 159.725 398.342 160.617 397.301C161.509 396.259 162.707 395.738 164.211 395.738ZM171.174 396.041H172.844V397.848C172.98 397.496 173.316 397.07 173.85 396.568C174.383 396.061 174.999 395.807 175.695 395.807C175.728 395.807 175.783 395.81 175.861 395.816C175.939 395.823 176.073 395.836 176.262 395.855V397.711C176.158 397.691 176.06 397.678 175.969 397.672C175.884 397.665 175.79 397.662 175.686 397.662C174.8 397.662 174.12 397.949 173.645 398.521C173.169 399.088 172.932 399.742 172.932 400.484V406.5H171.174V396.041ZM177.111 404.371H179.152V406.5H177.111V404.371ZM188.059 392.154H190.354L197.6 403.775V392.154H199.445V406.5H197.268L189.914 394.889V406.5H188.059V392.154ZM206.428 405.367C207.593 405.367 208.391 404.928 208.82 404.049C209.257 403.163 209.475 402.18 209.475 401.1C209.475 400.123 209.318 399.329 209.006 398.717C208.511 397.753 207.658 397.271 206.447 397.271C205.373 397.271 204.592 397.682 204.104 398.502C203.615 399.322 203.371 400.312 203.371 401.471C203.371 402.584 203.615 403.512 204.104 404.254C204.592 404.996 205.367 405.367 206.428 405.367ZM206.496 395.738C207.844 395.738 208.983 396.188 209.914 397.086C210.845 397.984 211.311 399.306 211.311 401.051C211.311 402.737 210.9 404.13 210.08 405.23C209.26 406.331 207.987 406.881 206.262 406.881C204.823 406.881 203.68 406.396 202.834 405.426C201.988 404.449 201.564 403.141 201.564 401.5C201.564 399.742 202.01 398.342 202.902 397.301C203.794 396.259 204.992 395.738 206.496 395.738ZM213.83 404.371H215.871V406.5H213.83V404.371ZM223.879 406.5C223.944 405.296 224.191 404.247 224.621 403.355C225.057 402.464 225.904 401.653 227.16 400.924L229.035 399.84C229.875 399.352 230.464 398.935 230.803 398.59C231.337 398.049 231.604 397.431 231.604 396.734C231.604 395.921 231.359 395.276 230.871 394.801C230.383 394.319 229.732 394.078 228.918 394.078C227.714 394.078 226.88 394.534 226.418 395.445C226.171 395.934 226.034 396.611 226.008 397.477H224.221C224.24 396.259 224.465 395.266 224.895 394.498C225.656 393.144 227.001 392.467 228.928 392.467C230.529 392.467 231.698 392.9 232.434 393.766C233.176 394.632 233.547 395.595 233.547 396.656C233.547 397.776 233.153 398.733 232.365 399.527C231.91 399.99 231.092 400.549 229.914 401.207L228.576 401.949C227.938 402.301 227.437 402.636 227.072 402.955C226.421 403.521 226.011 404.15 225.842 404.84H233.479V406.5H223.879ZM236.047 408.541C236.496 408.463 236.812 408.147 236.994 407.594C237.092 407.301 237.141 407.018 237.141 406.744C237.141 406.699 237.137 406.656 237.131 406.617C237.131 406.585 237.124 406.546 237.111 406.5H236.047V404.371H238.137V406.344C238.137 407.118 237.98 407.799 237.668 408.385C237.355 408.971 236.815 409.332 236.047 409.469V408.541ZM248.176 392.154L252.297 404.371L256.369 392.154H258.547L253.312 406.5H251.252L246.027 392.154H248.176ZM263.41 395.807C264.152 395.807 264.872 395.982 265.568 396.334C266.265 396.679 266.796 397.128 267.16 397.682C267.512 398.209 267.746 398.824 267.863 399.527C267.967 400.009 268.02 400.777 268.02 401.832H260.354C260.386 402.893 260.637 403.746 261.105 404.391C261.574 405.029 262.3 405.348 263.283 405.348C264.201 405.348 264.934 405.045 265.48 404.439C265.793 404.088 266.014 403.681 266.145 403.219H267.873C267.827 403.603 267.674 404.033 267.414 404.508C267.16 404.977 266.874 405.361 266.555 405.66C266.021 406.181 265.36 406.533 264.572 406.715C264.149 406.819 263.671 406.871 263.137 406.871C261.835 406.871 260.731 406.399 259.826 405.455C258.921 404.505 258.469 403.176 258.469 401.471C258.469 399.791 258.924 398.427 259.836 397.379C260.747 396.331 261.939 395.807 263.41 395.807ZM266.213 400.436C266.141 399.674 265.975 399.065 265.715 398.609C265.233 397.763 264.429 397.34 263.303 397.34C262.495 397.34 261.818 397.633 261.271 398.219C260.725 398.798 260.435 399.537 260.402 400.436H266.213ZM270.236 392.154H271.994V406.5H270.236V392.154ZM274.689 392.154H276.447V406.5H274.689V392.154ZM283.244 405.367C284.41 405.367 285.207 404.928 285.637 404.049C286.073 403.163 286.291 402.18 286.291 401.1C286.291 400.123 286.135 399.329 285.822 398.717C285.327 397.753 284.475 397.271 283.264 397.271C282.189 397.271 281.408 397.682 280.92 398.502C280.432 399.322 280.188 400.312 280.188 401.471C280.188 402.584 280.432 403.512 280.92 404.254C281.408 404.996 282.183 405.367 283.244 405.367ZM283.312 395.738C284.66 395.738 285.799 396.188 286.73 397.086C287.661 397.984 288.127 399.306 288.127 401.051C288.127 402.737 287.717 404.13 286.896 405.23C286.076 406.331 284.803 406.881 283.078 406.881C281.639 406.881 280.497 406.396 279.65 405.426C278.804 404.449 278.381 403.141 278.381 401.5C278.381 399.742 278.827 398.342 279.719 397.301C280.611 396.259 281.809 395.738 283.312 395.738ZM290.275 396.041H291.945V397.848C292.082 397.496 292.417 397.07 292.951 396.568C293.485 396.061 294.1 395.807 294.797 395.807C294.829 395.807 294.885 395.81 294.963 395.816C295.041 395.823 295.174 395.836 295.363 395.855V397.711C295.259 397.691 295.161 397.678 295.07 397.672C294.986 397.665 294.891 397.662 294.787 397.662C293.902 397.662 293.221 397.949 292.746 398.521C292.271 399.088 292.033 399.742 292.033 400.484V406.5H290.275V396.041ZM301.242 395.807C301.984 395.807 302.704 395.982 303.4 396.334C304.097 396.679 304.628 397.128 304.992 397.682C305.344 398.209 305.578 398.824 305.695 399.527C305.799 400.009 305.852 400.777 305.852 401.832H298.186C298.218 402.893 298.469 403.746 298.938 404.391C299.406 405.029 300.132 405.348 301.115 405.348C302.033 405.348 302.766 405.045 303.312 404.439C303.625 404.088 303.846 403.681 303.977 403.219H305.705C305.66 403.603 305.507 404.033 305.246 404.508C304.992 404.977 304.706 405.361 304.387 405.66C303.853 406.181 303.192 406.533 302.404 406.715C301.981 406.819 301.503 406.871 300.969 406.871C299.667 406.871 298.563 406.399 297.658 405.455C296.753 404.505 296.301 403.176 296.301 401.471C296.301 399.791 296.757 398.427 297.668 397.379C298.579 396.331 299.771 395.807 301.242 395.807ZM304.045 400.436C303.973 399.674 303.807 399.065 303.547 398.609C303.065 397.763 302.261 397.34 301.135 397.34C300.327 397.34 299.65 397.633 299.104 398.219C298.557 398.798 298.267 399.537 298.234 400.436H304.045ZM313.127 400.025H318.029V401.832H313.127V400.025ZM326.047 392.154H327.941V399.146L334.934 392.154H337.619L331.652 397.936L337.785 406.5H335.256L330.236 399.303L327.941 401.5V406.5H326.047V392.154ZM340.5 403.717C340.5 404.225 340.686 404.625 341.057 404.918C341.428 405.211 341.867 405.357 342.375 405.357C342.993 405.357 343.592 405.214 344.172 404.928C345.148 404.452 345.637 403.674 345.637 402.594V401.178C345.422 401.314 345.145 401.428 344.807 401.52C344.468 401.611 344.136 401.676 343.811 401.715L342.746 401.852C342.108 401.936 341.63 402.07 341.311 402.252C340.77 402.558 340.5 403.046 340.5 403.717ZM344.758 400.162C345.161 400.11 345.432 399.941 345.568 399.654C345.646 399.498 345.686 399.273 345.686 398.98C345.686 398.382 345.471 397.949 345.041 397.682C344.618 397.408 344.009 397.271 343.215 397.271C342.297 397.271 341.646 397.519 341.262 398.014C341.047 398.287 340.907 398.694 340.842 399.234H339.201C339.234 397.945 339.65 397.05 340.451 396.549C341.258 396.041 342.193 395.787 343.254 395.787C344.484 395.787 345.484 396.021 346.252 396.49C347.014 396.959 347.395 397.688 347.395 398.678V404.703C347.395 404.885 347.43 405.032 347.502 405.143C347.58 405.253 347.74 405.309 347.98 405.309C348.059 405.309 348.146 405.305 348.244 405.299C348.342 405.286 348.446 405.27 348.557 405.25V406.549C348.283 406.627 348.075 406.676 347.932 406.695C347.788 406.715 347.593 406.725 347.346 406.725C346.74 406.725 346.301 406.51 346.027 406.08C345.884 405.852 345.783 405.53 345.725 405.113C345.367 405.582 344.852 405.989 344.182 406.334C343.511 406.679 342.772 406.852 341.965 406.852C340.995 406.852 340.201 406.559 339.582 405.973C338.97 405.38 338.664 404.641 338.664 403.756C338.664 402.786 338.967 402.034 339.572 401.5C340.178 400.966 340.972 400.637 341.955 400.514L344.758 400.162ZM350.637 393.121H352.414V396.041H354.084V397.477H352.414V404.303C352.414 404.667 352.538 404.911 352.785 405.035C352.922 405.107 353.15 405.143 353.469 405.143C353.553 405.143 353.645 405.143 353.742 405.143C353.84 405.136 353.954 405.126 354.084 405.113V406.5C353.882 406.559 353.671 406.601 353.449 406.627C353.234 406.653 353 406.666 352.746 406.666C351.926 406.666 351.369 406.458 351.076 406.041C350.783 405.618 350.637 405.071 350.637 404.4V397.477H349.221V396.041H350.637V393.121ZM360.266 405.318C361.086 405.318 361.766 404.977 362.307 404.293C362.854 403.603 363.127 402.574 363.127 401.207C363.127 400.374 363.007 399.658 362.766 399.059C362.31 397.906 361.477 397.33 360.266 397.33C359.048 397.33 358.215 397.939 357.766 399.156C357.525 399.807 357.404 400.634 357.404 401.637C357.404 402.444 357.525 403.131 357.766 403.697C358.221 404.778 359.055 405.318 360.266 405.318ZM355.715 396.09H357.424V397.477C357.775 397.001 358.16 396.633 358.576 396.373C359.169 395.982 359.865 395.787 360.666 395.787C361.851 395.787 362.857 396.243 363.684 397.154C364.51 398.059 364.924 399.355 364.924 401.041C364.924 403.32 364.328 404.947 363.137 405.924C362.382 406.542 361.503 406.852 360.5 406.852C359.712 406.852 359.051 406.679 358.518 406.334C358.205 406.139 357.857 405.803 357.473 405.328V410.67H355.715V396.09ZM368.332 403.717C368.332 404.225 368.518 404.625 368.889 404.918C369.26 405.211 369.699 405.357 370.207 405.357C370.826 405.357 371.424 405.214 372.004 404.928C372.98 404.452 373.469 403.674 373.469 402.594V401.178C373.254 401.314 372.977 401.428 372.639 401.52C372.3 401.611 371.968 401.676 371.643 401.715L370.578 401.852C369.94 401.936 369.462 402.07 369.143 402.252C368.602 402.558 368.332 403.046 368.332 403.717ZM372.59 400.162C372.993 400.11 373.264 399.941 373.4 399.654C373.479 399.498 373.518 399.273 373.518 398.98C373.518 398.382 373.303 397.949 372.873 397.682C372.45 397.408 371.841 397.271 371.047 397.271C370.129 397.271 369.478 397.519 369.094 398.014C368.879 398.287 368.739 398.694 368.674 399.234H367.033C367.066 397.945 367.482 397.05 368.283 396.549C369.09 396.041 370.025 395.787 371.086 395.787C372.316 395.787 373.316 396.021 374.084 396.49C374.846 396.959 375.227 397.688 375.227 398.678V404.703C375.227 404.885 375.262 405.032 375.334 405.143C375.412 405.253 375.572 405.309 375.812 405.309C375.891 405.309 375.979 405.305 376.076 405.299C376.174 405.286 376.278 405.27 376.389 405.25V406.549C376.115 406.627 375.907 406.676 375.764 406.695C375.62 406.715 375.425 406.725 375.178 406.725C374.572 406.725 374.133 406.51 373.859 406.08C373.716 405.852 373.615 405.53 373.557 405.113C373.199 405.582 372.684 405.989 372.014 406.334C371.343 406.679 370.604 406.852 369.797 406.852C368.827 406.852 368.033 406.559 367.414 405.973C366.802 405.38 366.496 404.641 366.496 403.756C366.496 402.786 366.799 402.034 367.404 401.5C368.01 400.966 368.804 400.637 369.787 400.514L372.59 400.162ZM379.23 401.393C379.23 402.512 379.468 403.45 379.943 404.205C380.419 404.96 381.18 405.338 382.229 405.338C383.042 405.338 383.71 404.99 384.23 404.293C384.758 403.59 385.021 402.584 385.021 401.275C385.021 399.954 384.751 398.977 384.211 398.346C383.671 397.708 383.003 397.389 382.209 397.389C381.324 397.389 380.604 397.727 380.051 398.404C379.504 399.081 379.23 400.077 379.23 401.393ZM381.877 395.855C382.678 395.855 383.348 396.025 383.889 396.363C384.201 396.559 384.556 396.9 384.953 397.389V392.105H386.643V406.5H385.061V405.045C384.65 405.689 384.165 406.155 383.605 406.441C383.046 406.728 382.404 406.871 381.682 406.871C380.516 406.871 379.507 406.383 378.654 405.406C377.801 404.423 377.375 403.118 377.375 401.49C377.375 399.967 377.762 398.648 378.537 397.535C379.318 396.415 380.432 395.855 381.877 395.855ZM389.25 396.09H391.037V406.5H389.25V396.09ZM389.25 392.154H391.037V394.146H389.25V392.154ZM406.174 398.727C407.085 398.727 407.805 398.544 408.332 398.18C408.866 397.815 409.133 397.158 409.133 396.207C409.133 395.185 408.762 394.488 408.02 394.117C407.622 393.922 407.092 393.824 406.428 393.824H401.682V398.727H406.174ZM399.738 392.154H406.379C407.473 392.154 408.374 392.314 409.084 392.633C410.432 393.245 411.105 394.374 411.105 396.021C411.105 396.881 410.926 397.584 410.568 398.131C410.217 398.678 409.722 399.117 409.084 399.449C409.644 399.677 410.064 399.977 410.344 400.348C410.63 400.719 410.79 401.321 410.822 402.154L410.891 404.078C410.91 404.625 410.956 405.032 411.027 405.299C411.145 405.755 411.353 406.048 411.652 406.178V406.5H409.27C409.204 406.376 409.152 406.217 409.113 406.021C409.074 405.826 409.042 405.449 409.016 404.889L408.898 402.496C408.853 401.559 408.505 400.93 407.854 400.611C407.482 400.436 406.9 400.348 406.105 400.348H401.682V406.5H399.738V392.154ZM417.873 405.367C419.038 405.367 419.836 404.928 420.266 404.049C420.702 403.163 420.92 402.18 420.92 401.1C420.92 400.123 420.764 399.329 420.451 398.717C419.956 397.753 419.104 397.271 417.893 397.271C416.818 397.271 416.037 397.682 415.549 398.502C415.061 399.322 414.816 400.312 414.816 401.471C414.816 402.584 415.061 403.512 415.549 404.254C416.037 404.996 416.812 405.367 417.873 405.367ZM417.941 395.738C419.289 395.738 420.428 396.188 421.359 397.086C422.29 397.984 422.756 399.306 422.756 401.051C422.756 402.737 422.346 404.13 421.525 405.23C420.705 406.331 419.432 406.881 417.707 406.881C416.268 406.881 415.126 406.396 414.279 405.426C413.433 404.449 413.01 403.141 413.01 401.5C413.01 399.742 413.456 398.342 414.348 397.301C415.24 396.259 416.438 395.738 417.941 395.738ZM426.203 403.717C426.203 404.225 426.389 404.625 426.76 404.918C427.131 405.211 427.57 405.357 428.078 405.357C428.697 405.357 429.296 405.214 429.875 404.928C430.852 404.452 431.34 403.674 431.34 402.594V401.178C431.125 401.314 430.848 401.428 430.51 401.52C430.171 401.611 429.839 401.676 429.514 401.715L428.449 401.852C427.811 401.936 427.333 402.07 427.014 402.252C426.473 402.558 426.203 403.046 426.203 403.717ZM430.461 400.162C430.865 400.11 431.135 399.941 431.271 399.654C431.35 399.498 431.389 399.273 431.389 398.98C431.389 398.382 431.174 397.949 430.744 397.682C430.321 397.408 429.712 397.271 428.918 397.271C428 397.271 427.349 397.519 426.965 398.014C426.75 398.287 426.61 398.694 426.545 399.234H424.904C424.937 397.945 425.354 397.05 426.154 396.549C426.962 396.041 427.896 395.787 428.957 395.787C430.188 395.787 431.187 396.021 431.955 396.49C432.717 396.959 433.098 397.688 433.098 398.678V404.703C433.098 404.885 433.133 405.032 433.205 405.143C433.283 405.253 433.443 405.309 433.684 405.309C433.762 405.309 433.85 405.305 433.947 405.299C434.045 405.286 434.149 405.27 434.26 405.25V406.549C433.986 406.627 433.778 406.676 433.635 406.695C433.492 406.715 433.296 406.725 433.049 406.725C432.443 406.725 432.004 406.51 431.73 406.08C431.587 405.852 431.486 405.53 431.428 405.113C431.07 405.582 430.555 405.989 429.885 406.334C429.214 406.679 428.475 406.852 427.668 406.852C426.698 406.852 425.904 406.559 425.285 405.973C424.673 405.38 424.367 404.641 424.367 403.756C424.367 402.786 424.67 402.034 425.275 401.5C425.881 400.966 426.675 400.637 427.658 400.514L430.461 400.162ZM437.102 401.393C437.102 402.512 437.339 403.45 437.814 404.205C438.29 404.96 439.051 405.338 440.1 405.338C440.913 405.338 441.581 404.99 442.102 404.293C442.629 403.59 442.893 402.584 442.893 401.275C442.893 399.954 442.622 398.977 442.082 398.346C441.542 397.708 440.874 397.389 440.08 397.389C439.195 397.389 438.475 397.727 437.922 398.404C437.375 399.081 437.102 400.077 437.102 401.393ZM439.748 395.855C440.549 395.855 441.219 396.025 441.76 396.363C442.072 396.559 442.427 396.9 442.824 397.389V392.105H444.514V406.5H442.932V405.045C442.521 405.689 442.036 406.155 441.477 406.441C440.917 406.728 440.275 406.871 439.553 406.871C438.387 406.871 437.378 406.383 436.525 405.406C435.673 404.423 435.246 403.118 435.246 401.49C435.246 399.967 435.633 398.648 436.408 397.535C437.189 396.415 438.303 395.855 439.748 395.855ZM447.492 408.541C447.941 408.463 448.257 408.147 448.439 407.594C448.537 407.301 448.586 407.018 448.586 406.744C448.586 406.699 448.583 406.656 448.576 406.617C448.576 406.585 448.57 406.546 448.557 406.5H447.492V404.371H449.582V406.344C449.582 407.118 449.426 407.799 449.113 408.385C448.801 408.971 448.26 409.332 447.492 409.469V408.541ZM459.758 401.871C459.803 402.685 459.995 403.346 460.334 403.854C460.979 404.804 462.115 405.279 463.742 405.279C464.471 405.279 465.135 405.175 465.734 404.967C466.893 404.563 467.473 403.84 467.473 402.799C467.473 402.018 467.229 401.461 466.74 401.129C466.245 400.803 465.471 400.52 464.416 400.279L462.473 399.84C461.203 399.553 460.305 399.238 459.777 398.893C458.866 398.294 458.41 397.398 458.41 396.207C458.41 394.918 458.856 393.86 459.748 393.033C460.64 392.206 461.903 391.793 463.537 391.793C465.041 391.793 466.317 392.158 467.365 392.887C468.42 393.609 468.947 394.768 468.947 396.363H467.121C467.023 395.595 466.815 395.006 466.496 394.596C465.904 393.847 464.898 393.473 463.479 393.473C462.333 393.473 461.509 393.714 461.008 394.195C460.507 394.677 460.256 395.237 460.256 395.875C460.256 396.578 460.549 397.092 461.135 397.418C461.519 397.626 462.388 397.887 463.742 398.199L465.754 398.658C466.724 398.88 467.473 399.182 468 399.566C468.911 400.237 469.367 401.21 469.367 402.486C469.367 404.075 468.788 405.211 467.629 405.895C466.477 406.578 465.135 406.92 463.605 406.92C461.822 406.92 460.425 406.464 459.416 405.553C458.407 404.648 457.912 403.421 457.932 401.871H459.758ZM471.594 396.09H473.381V406.5H471.594V396.09ZM471.594 392.154H473.381V394.146H471.594V392.154ZM476.096 392.154H477.854V406.5H476.096V392.154ZM480.461 392.154H482.15V400.484L486.662 396.041H488.908L484.904 399.957L489.133 406.5H486.887L483.625 401.227L482.15 402.574V406.5H480.461V392.154ZM496.252 392.154H499.035L503.156 404.283L507.248 392.154H510.002V406.5H508.156V398.033C508.156 397.74 508.163 397.255 508.176 396.578C508.189 395.901 508.195 395.175 508.195 394.4L504.104 406.5H502.18L498.059 394.4V394.84C498.059 395.191 498.065 395.729 498.078 396.451C498.098 397.167 498.107 397.695 498.107 398.033V406.5H496.252V392.154ZM512.727 396.09H514.514V406.5H512.727V396.09ZM512.727 392.154H514.514V394.146H512.727V392.154ZM517.229 392.154H518.986V406.5H517.229V392.154ZM521.682 392.154H523.439V406.5H521.682V392.154ZM526.457 408.541C526.906 408.463 527.222 408.147 527.404 407.594C527.502 407.301 527.551 407.018 527.551 406.744C527.551 406.699 527.548 406.656 527.541 406.617C527.541 406.585 527.535 406.546 527.521 406.5H526.457V404.371H528.547V406.344C528.547 407.118 528.391 407.799 528.078 408.385C527.766 408.971 527.225 409.332 526.457 409.469V408.541ZM543.654 391.783C545.002 391.783 546.167 392.044 547.15 392.564C548.576 393.313 549.449 394.625 549.768 396.5H547.844C547.609 395.452 547.124 394.69 546.389 394.215C545.653 393.733 544.725 393.492 543.605 393.492C542.277 393.492 541.158 393.99 540.246 394.986C539.341 395.982 538.889 397.467 538.889 399.439C538.889 401.145 539.263 402.535 540.012 403.609C540.76 404.677 541.981 405.211 543.674 405.211C544.969 405.211 546.04 404.837 546.887 404.088C547.74 403.333 548.176 402.115 548.195 400.436H543.703V398.824H550.002V406.5H548.752L548.283 404.654C547.626 405.377 547.043 405.878 546.535 406.158C545.682 406.64 544.598 406.881 543.283 406.881C541.584 406.881 540.122 406.331 538.898 405.23C537.564 403.85 536.896 401.956 536.896 399.547C536.896 397.145 537.548 395.234 538.85 393.814C540.087 392.46 541.688 391.783 543.654 391.783ZM554.133 403.717C554.133 404.225 554.318 404.625 554.689 404.918C555.061 405.211 555.5 405.357 556.008 405.357C556.626 405.357 557.225 405.214 557.805 404.928C558.781 404.452 559.27 403.674 559.27 402.594V401.178C559.055 401.314 558.778 401.428 558.439 401.52C558.101 401.611 557.769 401.676 557.443 401.715L556.379 401.852C555.741 401.936 555.262 402.07 554.943 402.252C554.403 402.558 554.133 403.046 554.133 403.717ZM558.391 400.162C558.794 400.11 559.064 399.941 559.201 399.654C559.279 399.498 559.318 399.273 559.318 398.98C559.318 398.382 559.104 397.949 558.674 397.682C558.251 397.408 557.642 397.271 556.848 397.271C555.93 397.271 555.279 397.519 554.895 398.014C554.68 398.287 554.54 398.694 554.475 399.234H552.834C552.867 397.945 553.283 397.05 554.084 396.549C554.891 396.041 555.826 395.787 556.887 395.787C558.117 395.787 559.117 396.021 559.885 396.49C560.646 396.959 561.027 397.688 561.027 398.678V404.703C561.027 404.885 561.063 405.032 561.135 405.143C561.213 405.253 561.372 405.309 561.613 405.309C561.691 405.309 561.779 405.305 561.877 405.299C561.975 405.286 562.079 405.27 562.189 405.25V406.549C561.916 406.627 561.708 406.676 561.564 406.695C561.421 406.715 561.226 406.725 560.979 406.725C560.373 406.725 559.934 406.51 559.66 406.08C559.517 405.852 559.416 405.53 559.357 405.113C558.999 405.582 558.485 405.989 557.814 406.334C557.144 406.679 556.405 406.852 555.598 406.852C554.628 406.852 553.833 406.559 553.215 405.973C552.603 405.38 552.297 404.641 552.297 403.756C552.297 402.786 552.6 402.034 553.205 401.5C553.811 400.966 554.605 400.637 555.588 400.514L558.391 400.162ZM563.918 396.041H565.588V397.525C566.083 396.913 566.607 396.474 567.16 396.207C567.714 395.94 568.329 395.807 569.006 395.807C570.49 395.807 571.493 396.324 572.014 397.359C572.3 397.926 572.443 398.736 572.443 399.791V406.5H570.656V399.908C570.656 399.27 570.562 398.756 570.373 398.365C570.061 397.714 569.494 397.389 568.674 397.389C568.257 397.389 567.915 397.431 567.648 397.516C567.167 397.659 566.743 397.945 566.379 398.375C566.086 398.72 565.894 399.078 565.803 399.449C565.718 399.814 565.676 400.338 565.676 401.021V406.5H563.918V396.041ZM576.164 401.393C576.164 402.512 576.402 403.45 576.877 404.205C577.352 404.96 578.114 405.338 579.162 405.338C579.976 405.338 580.643 404.99 581.164 404.293C581.691 403.59 581.955 402.584 581.955 401.275C581.955 399.954 581.685 398.977 581.145 398.346C580.604 397.708 579.937 397.389 579.143 397.389C578.257 397.389 577.538 397.727 576.984 398.404C576.438 399.081 576.164 400.077 576.164 401.393ZM578.811 395.855C579.611 395.855 580.282 396.025 580.822 396.363C581.135 396.559 581.49 396.9 581.887 397.389V392.105H583.576V406.5H581.994V405.045C581.584 405.689 581.099 406.155 580.539 406.441C579.979 406.728 579.338 406.871 578.615 406.871C577.45 406.871 576.441 406.383 575.588 405.406C574.735 404.423 574.309 403.118 574.309 401.49C574.309 399.967 574.696 398.648 575.471 397.535C576.252 396.415 577.365 395.855 578.811 395.855ZM586.184 392.105H587.941V397.457C588.358 396.93 588.732 396.559 589.064 396.344C589.631 395.973 590.337 395.787 591.184 395.787C592.701 395.787 593.729 396.318 594.27 397.379C594.562 397.958 594.709 398.762 594.709 399.791V406.5H592.902V399.908C592.902 399.14 592.805 398.577 592.609 398.219C592.29 397.646 591.691 397.359 590.812 397.359C590.083 397.359 589.423 397.61 588.83 398.111C588.238 398.613 587.941 399.56 587.941 400.953V406.5H586.184V392.105ZM597.316 396.09H599.104V406.5H597.316V396.09ZM597.316 392.154H599.104V394.146H597.316V392.154ZM607.57 392.154H609.865L617.111 403.775V392.154H618.957V406.5H616.779L609.426 394.889V406.5H607.57V392.154ZM623.137 403.717C623.137 404.225 623.322 404.625 623.693 404.918C624.064 405.211 624.504 405.357 625.012 405.357C625.63 405.357 626.229 405.214 626.809 404.928C627.785 404.452 628.273 403.674 628.273 402.594V401.178C628.059 401.314 627.782 401.428 627.443 401.52C627.105 401.611 626.773 401.676 626.447 401.715L625.383 401.852C624.745 401.936 624.266 402.07 623.947 402.252C623.407 402.558 623.137 403.046 623.137 403.717ZM627.395 400.162C627.798 400.11 628.068 399.941 628.205 399.654C628.283 399.498 628.322 399.273 628.322 398.98C628.322 398.382 628.107 397.949 627.678 397.682C627.255 397.408 626.646 397.271 625.852 397.271C624.934 397.271 624.283 397.519 623.898 398.014C623.684 398.287 623.544 398.694 623.479 399.234H621.838C621.87 397.945 622.287 397.05 623.088 396.549C623.895 396.041 624.829 395.787 625.891 395.787C627.121 395.787 628.12 396.021 628.889 396.49C629.65 396.959 630.031 397.688 630.031 398.678V404.703C630.031 404.885 630.067 405.032 630.139 405.143C630.217 405.253 630.376 405.309 630.617 405.309C630.695 405.309 630.783 405.305 630.881 405.299C630.979 405.286 631.083 405.27 631.193 405.25V406.549C630.92 406.627 630.712 406.676 630.568 406.695C630.425 406.715 630.23 406.725 629.982 406.725C629.377 406.725 628.938 406.51 628.664 406.08C628.521 405.852 628.42 405.53 628.361 405.113C628.003 405.582 627.489 405.989 626.818 406.334C626.148 406.679 625.409 406.852 624.602 406.852C623.632 406.852 622.837 406.559 622.219 405.973C621.607 405.38 621.301 404.641 621.301 403.756C621.301 402.786 621.604 402.034 622.209 401.5C622.814 400.966 623.609 400.637 624.592 400.514L627.395 400.162ZM636.613 395.855C637.434 395.855 638.15 396.057 638.762 396.461C639.094 396.689 639.432 397.021 639.777 397.457V396.139H641.398V405.65C641.398 406.979 641.203 408.027 640.812 408.795C640.083 410.214 638.706 410.924 636.682 410.924C635.555 410.924 634.608 410.67 633.84 410.162C633.072 409.661 632.642 408.873 632.551 407.799H634.338C634.423 408.268 634.592 408.629 634.846 408.883C635.243 409.273 635.868 409.469 636.721 409.469C638.068 409.469 638.951 408.993 639.367 408.043C639.615 407.483 639.729 406.484 639.709 405.045C639.357 405.579 638.934 405.976 638.439 406.236C637.945 406.497 637.29 406.627 636.477 406.627C635.344 406.627 634.351 406.227 633.498 405.426C632.652 404.618 632.229 403.287 632.229 401.432C632.229 399.68 632.655 398.313 633.508 397.33C634.367 396.347 635.402 395.855 636.613 395.855ZM639.777 401.227C639.777 399.931 639.51 398.971 638.977 398.346C638.443 397.721 637.762 397.408 636.936 397.408C635.699 397.408 634.852 397.988 634.396 399.146C634.156 399.765 634.035 400.576 634.035 401.578C634.035 402.757 634.273 403.655 634.748 404.273C635.23 404.885 635.874 405.191 636.682 405.191C637.945 405.191 638.833 404.622 639.348 403.482C639.634 402.838 639.777 402.086 639.777 401.227ZM645.402 403.717C645.402 404.225 645.588 404.625 645.959 404.918C646.33 405.211 646.77 405.357 647.277 405.357C647.896 405.357 648.495 405.214 649.074 404.928C650.051 404.452 650.539 403.674 650.539 402.594V401.178C650.324 401.314 650.048 401.428 649.709 401.52C649.37 401.611 649.038 401.676 648.713 401.715L647.648 401.852C647.01 401.936 646.532 402.07 646.213 402.252C645.673 402.558 645.402 403.046 645.402 403.717ZM649.66 400.162C650.064 400.11 650.334 399.941 650.471 399.654C650.549 399.498 650.588 399.273 650.588 398.98C650.588 398.382 650.373 397.949 649.943 397.682C649.52 397.408 648.911 397.271 648.117 397.271C647.199 397.271 646.548 397.519 646.164 398.014C645.949 398.287 645.809 398.694 645.744 399.234H644.104C644.136 397.945 644.553 397.05 645.354 396.549C646.161 396.041 647.095 395.787 648.156 395.787C649.387 395.787 650.386 396.021 651.154 396.49C651.916 396.959 652.297 397.688 652.297 398.678V404.703C652.297 404.885 652.333 405.032 652.404 405.143C652.482 405.253 652.642 405.309 652.883 405.309C652.961 405.309 653.049 405.305 653.146 405.299C653.244 405.286 653.348 405.27 653.459 405.25V406.549C653.186 406.627 652.977 406.676 652.834 406.695C652.691 406.715 652.495 406.725 652.248 406.725C651.643 406.725 651.203 406.51 650.93 406.08C650.786 405.852 650.686 405.53 650.627 405.113C650.269 405.582 649.755 405.989 649.084 406.334C648.413 406.679 647.674 406.852 646.867 406.852C645.897 406.852 645.103 406.559 644.484 405.973C643.872 405.38 643.566 404.641 643.566 403.756C643.566 402.786 643.869 402.034 644.475 401.5C645.08 400.966 645.874 400.637 646.857 400.514L649.66 400.162ZM655.236 396.041H656.906V397.848C657.043 397.496 657.378 397.07 657.912 396.568C658.446 396.061 659.061 395.807 659.758 395.807C659.79 395.807 659.846 395.81 659.924 395.816C660.002 395.823 660.135 395.836 660.324 395.855V397.711C660.22 397.691 660.122 397.678 660.031 397.672C659.947 397.665 659.852 397.662 659.748 397.662C658.863 397.662 658.182 397.949 657.707 398.521C657.232 399.088 656.994 399.742 656.994 400.484V406.5H655.236V396.041ZM661.125 408.541C661.574 408.463 661.89 408.147 662.072 407.594C662.17 407.301 662.219 407.018 662.219 406.744C662.219 406.699 662.215 406.656 662.209 406.617C662.209 406.585 662.202 406.546 662.189 406.5H661.125V404.371H663.215V406.344C663.215 407.118 663.059 407.799 662.746 408.385C662.434 408.971 661.893 409.332 661.125 409.469V408.541ZM672.121 392.154H674.016V399.146L681.008 392.154H683.693L677.727 397.936L683.859 406.5H681.33L676.311 399.303L674.016 401.5V406.5H672.121V392.154ZM686.574 403.717C686.574 404.225 686.76 404.625 687.131 404.918C687.502 405.211 687.941 405.357 688.449 405.357C689.068 405.357 689.667 405.214 690.246 404.928C691.223 404.452 691.711 403.674 691.711 402.594V401.178C691.496 401.314 691.219 401.428 690.881 401.52C690.542 401.611 690.21 401.676 689.885 401.715L688.82 401.852C688.182 401.936 687.704 402.07 687.385 402.252C686.844 402.558 686.574 403.046 686.574 403.717ZM690.832 400.162C691.236 400.11 691.506 399.941 691.643 399.654C691.721 399.498 691.76 399.273 691.76 398.98C691.76 398.382 691.545 397.949 691.115 397.682C690.692 397.408 690.083 397.271 689.289 397.271C688.371 397.271 687.72 397.519 687.336 398.014C687.121 398.287 686.981 398.694 686.916 399.234H685.275C685.308 397.945 685.725 397.05 686.525 396.549C687.333 396.041 688.267 395.787 689.328 395.787C690.559 395.787 691.558 396.021 692.326 396.49C693.088 396.959 693.469 397.688 693.469 398.678V404.703C693.469 404.885 693.505 405.032 693.576 405.143C693.654 405.253 693.814 405.309 694.055 405.309C694.133 405.309 694.221 405.305 694.318 405.299C694.416 405.286 694.52 405.27 694.631 405.25V406.549C694.357 406.627 694.149 406.676 694.006 406.695C693.863 406.715 693.667 406.725 693.42 406.725C692.814 406.725 692.375 406.51 692.102 406.08C691.958 405.852 691.857 405.53 691.799 405.113C691.441 405.582 690.926 405.989 690.256 406.334C689.585 406.679 688.846 406.852 688.039 406.852C687.069 406.852 686.275 406.559 685.656 405.973C685.044 405.38 684.738 404.641 684.738 403.756C684.738 402.786 685.041 402.034 685.646 401.5C686.252 400.966 687.046 400.637 688.029 400.514L690.832 400.162ZM696.711 393.121H698.488V396.041H700.158V397.477H698.488V404.303C698.488 404.667 698.612 404.911 698.859 405.035C698.996 405.107 699.224 405.143 699.543 405.143C699.628 405.143 699.719 405.143 699.816 405.143C699.914 405.136 700.028 405.126 700.158 405.113V406.5C699.956 406.559 699.745 406.601 699.523 406.627C699.309 406.653 699.074 406.666 698.82 406.666C698 406.666 697.443 406.458 697.15 406.041C696.857 405.618 696.711 405.071 696.711 404.4V397.477H695.295V396.041H696.711V393.121ZM706.34 405.318C707.16 405.318 707.84 404.977 708.381 404.293C708.928 403.603 709.201 402.574 709.201 401.207C709.201 400.374 709.081 399.658 708.84 399.059C708.384 397.906 707.551 397.33 706.34 397.33C705.122 397.33 704.289 397.939 703.84 399.156C703.599 399.807 703.479 400.634 703.479 401.637C703.479 402.444 703.599 403.131 703.84 403.697C704.296 404.778 705.129 405.318 706.34 405.318ZM701.789 396.09H703.498V397.477C703.85 397.001 704.234 396.633 704.65 396.373C705.243 395.982 705.939 395.787 706.74 395.787C707.925 395.787 708.931 396.243 709.758 397.154C710.585 398.059 710.998 399.355 710.998 401.041C710.998 403.32 710.402 404.947 709.211 405.924C708.456 406.542 707.577 406.852 706.574 406.852C705.786 406.852 705.126 406.679 704.592 406.334C704.279 406.139 703.931 405.803 703.547 405.328V410.67H701.789V396.09ZM714.406 403.717C714.406 404.225 714.592 404.625 714.963 404.918C715.334 405.211 715.773 405.357 716.281 405.357C716.9 405.357 717.499 405.214 718.078 404.928C719.055 404.452 719.543 403.674 719.543 402.594V401.178C719.328 401.314 719.051 401.428 718.713 401.52C718.374 401.611 718.042 401.676 717.717 401.715L716.652 401.852C716.014 401.936 715.536 402.07 715.217 402.252C714.676 402.558 714.406 403.046 714.406 403.717ZM718.664 400.162C719.068 400.11 719.338 399.941 719.475 399.654C719.553 399.498 719.592 399.273 719.592 398.98C719.592 398.382 719.377 397.949 718.947 397.682C718.524 397.408 717.915 397.271 717.121 397.271C716.203 397.271 715.552 397.519 715.168 398.014C714.953 398.287 714.813 398.694 714.748 399.234H713.107C713.14 397.945 713.557 397.05 714.357 396.549C715.165 396.041 716.099 395.787 717.16 395.787C718.391 395.787 719.39 396.021 720.158 396.49C720.92 396.959 721.301 397.688 721.301 398.678V404.703C721.301 404.885 721.337 405.032 721.408 405.143C721.486 405.253 721.646 405.309 721.887 405.309C721.965 405.309 722.053 405.305 722.15 405.299C722.248 405.286 722.352 405.27 722.463 405.25V406.549C722.189 406.627 721.981 406.676 721.838 406.695C721.695 406.715 721.499 406.725 721.252 406.725C720.646 406.725 720.207 406.51 719.934 406.08C719.79 405.852 719.689 405.53 719.631 405.113C719.273 405.582 718.758 405.989 718.088 406.334C717.417 406.679 716.678 406.852 715.871 406.852C714.901 406.852 714.107 406.559 713.488 405.973C712.876 405.38 712.57 404.641 712.57 403.756C712.57 402.786 712.873 402.034 713.479 401.5C714.084 400.966 714.878 400.637 715.861 400.514L718.664 400.162ZM725.305 401.393C725.305 402.512 725.542 403.45 726.018 404.205C726.493 404.96 727.255 405.338 728.303 405.338C729.117 405.338 729.784 404.99 730.305 404.293C730.832 403.59 731.096 402.584 731.096 401.275C731.096 399.954 730.826 398.977 730.285 398.346C729.745 397.708 729.077 397.389 728.283 397.389C727.398 397.389 726.678 397.727 726.125 398.404C725.578 399.081 725.305 400.077 725.305 401.393ZM727.951 395.855C728.752 395.855 729.423 396.025 729.963 396.363C730.275 396.559 730.63 396.9 731.027 397.389V392.105H732.717V406.5H731.135V405.045C730.725 405.689 730.24 406.155 729.68 406.441C729.12 406.728 728.479 406.871 727.756 406.871C726.59 406.871 725.581 406.383 724.729 405.406C723.876 404.423 723.449 403.118 723.449 401.49C723.449 399.967 723.837 398.648 724.611 397.535C725.393 396.415 726.506 395.855 727.951 395.855ZM735.324 396.09H737.111V406.5H735.324V396.09ZM735.324 392.154H737.111V394.146H735.324V392.154ZM740.148 408.541C740.598 408.463 740.913 408.147 741.096 407.594C741.193 407.301 741.242 407.018 741.242 406.744C741.242 406.699 741.239 406.656 741.232 406.617C741.232 406.585 741.226 406.546 741.213 406.5H740.148V404.371H742.238V406.344C742.238 407.118 742.082 407.799 741.77 408.385C741.457 408.971 740.917 409.332 740.148 409.469V408.541ZM752.277 392.154L756.398 404.371L760.471 392.154H762.648L757.414 406.5H755.354L750.129 392.154H752.277ZM767.512 395.807C768.254 395.807 768.973 395.982 769.67 396.334C770.367 396.679 770.897 397.128 771.262 397.682C771.613 398.209 771.848 398.824 771.965 399.527C772.069 400.009 772.121 400.777 772.121 401.832H764.455C764.488 402.893 764.738 403.746 765.207 404.391C765.676 405.029 766.402 405.348 767.385 405.348C768.303 405.348 769.035 405.045 769.582 404.439C769.895 404.088 770.116 403.681 770.246 403.219H771.975C771.929 403.603 771.776 404.033 771.516 404.508C771.262 404.977 770.975 405.361 770.656 405.66C770.122 406.181 769.462 406.533 768.674 406.715C768.251 406.819 767.772 406.871 767.238 406.871C765.936 406.871 764.833 406.399 763.928 405.455C763.023 404.505 762.57 403.176 762.57 401.471C762.57 399.791 763.026 398.427 763.938 397.379C764.849 396.331 766.04 395.807 767.512 395.807ZM770.314 400.436C770.243 399.674 770.077 399.065 769.816 398.609C769.335 397.763 768.531 397.34 767.404 397.34C766.597 397.34 765.92 397.633 765.373 398.219C764.826 398.798 764.536 399.537 764.504 400.436H770.314ZM774.338 392.154H776.096V406.5H774.338V392.154ZM778.791 392.154H780.549V406.5H778.791V392.154ZM787.346 405.367C788.511 405.367 789.309 404.928 789.738 404.049C790.174 403.163 790.393 402.18 790.393 401.1C790.393 400.123 790.236 399.329 789.924 398.717C789.429 397.753 788.576 397.271 787.365 397.271C786.291 397.271 785.51 397.682 785.021 398.502C784.533 399.322 784.289 400.312 784.289 401.471C784.289 402.584 784.533 403.512 785.021 404.254C785.51 404.996 786.285 405.367 787.346 405.367ZM787.414 395.738C788.762 395.738 789.901 396.188 790.832 397.086C791.763 397.984 792.229 399.306 792.229 401.051C792.229 402.737 791.818 404.13 790.998 405.23C790.178 406.331 788.905 406.881 787.18 406.881C785.741 406.881 784.598 406.396 783.752 405.426C782.906 404.449 782.482 403.141 782.482 401.5C782.482 399.742 782.928 398.342 783.82 397.301C784.712 396.259 785.91 395.738 787.414 395.738ZM794.377 396.041H796.047V397.848C796.184 397.496 796.519 397.07 797.053 396.568C797.587 396.061 798.202 395.807 798.898 395.807C798.931 395.807 798.986 395.81 799.064 395.816C799.143 395.823 799.276 395.836 799.465 395.855V397.711C799.361 397.691 799.263 397.678 799.172 397.672C799.087 397.665 798.993 397.662 798.889 397.662C798.003 397.662 797.323 397.949 796.848 398.521C796.372 399.088 796.135 399.742 796.135 400.484V406.5H794.377V396.041ZM805.344 395.807C806.086 395.807 806.805 395.982 807.502 396.334C808.199 396.679 808.729 397.128 809.094 397.682C809.445 398.209 809.68 398.824 809.797 399.527C809.901 400.009 809.953 400.777 809.953 401.832H802.287C802.32 402.893 802.57 403.746 803.039 404.391C803.508 405.029 804.234 405.348 805.217 405.348C806.135 405.348 806.867 405.045 807.414 404.439C807.727 404.088 807.948 403.681 808.078 403.219H809.807C809.761 403.603 809.608 404.033 809.348 404.508C809.094 404.977 808.807 405.361 808.488 405.66C807.954 406.181 807.294 406.533 806.506 406.715C806.083 406.819 805.604 406.871 805.07 406.871C803.768 406.871 802.665 406.399 801.76 405.455C800.855 404.505 800.402 403.176 800.402 401.471C800.402 399.791 800.858 398.427 801.77 397.379C802.681 396.331 803.872 395.807 805.344 395.807ZM808.146 400.436C808.075 399.674 807.909 399.065 807.648 398.609C807.167 397.763 806.363 397.34 805.236 397.34C804.429 397.34 803.752 397.633 803.205 398.219C802.658 398.798 802.368 399.537 802.336 400.436H808.146ZM817.229 400.025H822.131V401.832H817.229V400.025ZM834.475 392.457C836.037 392.457 837.124 392.864 837.736 393.678C838.355 394.485 838.664 395.318 838.664 396.178H836.926C836.822 395.624 836.656 395.191 836.428 394.879C836.005 394.293 835.363 394 834.504 394C833.521 394 832.74 394.456 832.16 395.367C831.581 396.272 831.258 397.571 831.193 399.264C831.597 398.671 832.105 398.229 832.717 397.936C833.277 397.675 833.902 397.545 834.592 397.545C835.764 397.545 836.786 397.919 837.658 398.668C838.531 399.417 838.967 400.533 838.967 402.018C838.967 403.287 838.553 404.413 837.727 405.396C836.9 406.373 835.721 406.861 834.191 406.861C832.883 406.861 831.753 406.367 830.803 405.377C829.852 404.381 829.377 402.708 829.377 400.357C829.377 398.619 829.589 397.145 830.012 395.934C830.826 393.616 832.313 392.457 834.475 392.457ZM834.348 405.299C835.272 405.299 835.962 404.99 836.418 404.371C836.88 403.746 837.111 403.01 837.111 402.164C837.111 401.448 836.906 400.768 836.496 400.123C836.086 399.472 835.34 399.146 834.26 399.146C833.505 399.146 832.84 399.397 832.268 399.898C831.701 400.4 831.418 401.155 831.418 402.164C831.418 403.049 831.675 403.795 832.189 404.4C832.71 404.999 833.43 405.299 834.348 405.299ZM844.953 406.881C843.299 406.881 842.098 406.428 841.35 405.523C840.607 404.612 840.236 403.505 840.236 402.203H842.072C842.15 403.108 842.32 403.766 842.58 404.176C843.036 404.911 843.859 405.279 845.051 405.279C845.975 405.279 846.717 405.032 847.277 404.537C847.837 404.042 848.117 403.404 848.117 402.623C848.117 401.66 847.821 400.986 847.229 400.602C846.643 400.217 845.826 400.025 844.777 400.025C844.66 400.025 844.54 400.029 844.416 400.035C844.299 400.035 844.178 400.038 844.055 400.045V398.492C844.237 398.512 844.39 398.525 844.514 398.531C844.637 398.538 844.771 398.541 844.914 398.541C845.572 398.541 846.112 398.437 846.535 398.229C847.277 397.864 847.648 397.213 847.648 396.275C847.648 395.579 847.401 395.042 846.906 394.664C846.411 394.286 845.835 394.098 845.178 394.098C844.006 394.098 843.195 394.488 842.746 395.27C842.499 395.699 842.359 396.311 842.326 397.105H840.588C840.588 396.064 840.796 395.178 841.213 394.449C841.929 393.147 843.189 392.496 844.992 392.496C846.418 392.496 847.521 392.815 848.303 393.453C849.084 394.085 849.475 395.003 849.475 396.207C849.475 397.066 849.243 397.763 848.781 398.297C848.495 398.629 848.124 398.889 847.668 399.078C848.404 399.28 848.977 399.671 849.387 400.25C849.803 400.823 850.012 401.526 850.012 402.359C850.012 403.694 849.572 404.781 848.693 405.621C847.814 406.461 846.568 406.881 844.953 406.881ZM851.516 406.5C851.581 405.296 851.828 404.247 852.258 403.355C852.694 402.464 853.54 401.653 854.797 400.924L856.672 399.84C857.512 399.352 858.101 398.935 858.439 398.59C858.973 398.049 859.24 397.431 859.24 396.734C859.24 395.921 858.996 395.276 858.508 394.801C858.02 394.319 857.368 394.078 856.555 394.078C855.35 394.078 854.517 394.534 854.055 395.445C853.807 395.934 853.671 396.611 853.645 397.477H851.857C851.877 396.259 852.102 395.266 852.531 394.498C853.293 393.144 854.637 392.467 856.564 392.467C858.166 392.467 859.335 392.9 860.07 393.766C860.812 394.632 861.184 395.595 861.184 396.656C861.184 397.776 860.79 398.733 860.002 399.527C859.546 399.99 858.729 400.549 857.551 401.207L856.213 401.949C855.575 402.301 855.074 402.636 854.709 402.955C854.058 403.521 853.648 404.15 853.479 404.84H861.115V406.5H851.516ZM873 392.516C874.81 392.516 876.118 393.261 876.926 394.752C877.551 395.904 877.863 397.483 877.863 399.488C877.863 401.389 877.58 402.962 877.014 404.205C876.193 405.989 874.852 406.881 872.99 406.881C871.311 406.881 870.061 406.152 869.24 404.693C868.557 403.476 868.215 401.842 868.215 399.791C868.215 398.202 868.42 396.839 868.83 395.699C869.598 393.577 870.988 392.516 873 392.516ZM872.98 405.279C873.892 405.279 874.618 404.876 875.158 404.068C875.699 403.261 875.969 401.757 875.969 399.557C875.969 397.968 875.773 396.663 875.383 395.641C874.992 394.612 874.234 394.098 873.107 394.098C872.072 394.098 871.314 394.586 870.832 395.562C870.357 396.533 870.119 397.965 870.119 399.859C870.119 401.285 870.272 402.431 870.578 403.297C871.047 404.618 871.848 405.279 872.98 405.279ZM884.133 392.516C885.943 392.516 887.251 393.261 888.059 394.752C888.684 395.904 888.996 397.483 888.996 399.488C888.996 401.389 888.713 402.962 888.146 404.205C887.326 405.989 885.985 406.881 884.123 406.881C882.443 406.881 881.193 406.152 880.373 404.693C879.689 403.476 879.348 401.842 879.348 399.791C879.348 398.202 879.553 396.839 879.963 395.699C880.731 393.577 882.121 392.516 884.133 392.516ZM884.113 405.279C885.025 405.279 885.751 404.876 886.291 404.068C886.831 403.261 887.102 401.757 887.102 399.557C887.102 397.968 886.906 396.663 886.516 395.641C886.125 394.612 885.367 394.098 884.24 394.098C883.205 394.098 882.447 394.586 881.965 395.562C881.49 396.533 881.252 397.965 881.252 399.859C881.252 401.285 881.405 402.431 881.711 403.297C882.18 404.618 882.98 405.279 884.113 405.279ZM895.705 392.457C897.268 392.457 898.355 392.864 898.967 393.678C899.585 394.485 899.895 395.318 899.895 396.178H898.156C898.052 395.624 897.886 395.191 897.658 394.879C897.235 394.293 896.594 394 895.734 394C894.751 394 893.97 394.456 893.391 395.367C892.811 396.272 892.489 397.571 892.424 399.264C892.827 398.671 893.335 398.229 893.947 397.936C894.507 397.675 895.132 397.545 895.822 397.545C896.994 397.545 898.016 397.919 898.889 398.668C899.761 399.417 900.197 400.533 900.197 402.018C900.197 403.287 899.784 404.413 898.957 405.396C898.13 406.373 896.952 406.861 895.422 406.861C894.113 406.861 892.984 406.367 892.033 405.377C891.083 404.381 890.607 402.708 890.607 400.357C890.607 398.619 890.819 397.145 891.242 395.934C892.056 393.616 893.544 392.457 895.705 392.457ZM895.578 405.299C896.503 405.299 897.193 404.99 897.648 404.371C898.111 403.746 898.342 403.01 898.342 402.164C898.342 401.448 898.137 400.768 897.727 400.123C897.316 399.472 896.571 399.146 895.49 399.146C894.735 399.146 894.071 399.397 893.498 399.898C892.932 400.4 892.648 401.155 892.648 402.164C892.648 403.049 892.906 403.795 893.42 404.4C893.941 404.999 894.66 405.299 895.578 405.299ZM902.697 404.371H904.738V406.5H902.697V404.371Z" fill="white"/>
<path d="M945.001 404.92V407.92C945.003 408.199 944.945 408.474 944.834 408.729C944.722 408.985 944.559 409.214 944.353 409.402C944.148 409.59 943.906 409.734 943.642 409.823C943.378 409.912 943.099 409.945 942.821 409.92C939.744 409.586 936.788 408.534 934.191 406.85C931.775 405.315 929.727 403.266 928.191 400.85C926.501 398.241 925.45 395.271 925.121 392.18C925.096 391.904 925.129 391.625 925.218 391.362C925.307 391.099 925.449 390.857 925.636 390.652C925.823 390.447 926.051 390.283 926.305 390.171C926.559 390.058 926.834 390 927.111 390H930.111C930.597 389.995 931.067 390.167 931.435 390.484C931.803 390.8 932.043 391.24 932.111 391.72C932.238 392.68 932.473 393.623 932.811 394.53C932.946 394.888 932.975 395.277 932.895 395.651C932.816 396.025 932.63 396.368 932.361 396.64L931.091 397.91C932.515 400.414 934.588 402.487 937.091 403.91L938.361 402.64C938.633 402.371 938.977 402.186 939.351 402.106C939.724 402.026 940.113 402.056 940.471 402.19C941.379 402.529 942.321 402.763 943.281 402.89C943.767 402.959 944.211 403.203 944.528 403.578C944.845 403.952 945.014 404.43 945.001 404.92Z" stroke="white" stroke-width="1.5" stroke-linecap="round" stroke-linejoin="round"/>
<path d="M955.656 403.121C955.708 404.091 956.083 404.762 956.779 405.133C957.137 405.328 957.541 405.426 957.99 405.426C958.83 405.426 959.546 405.077 960.139 404.381C960.731 403.678 961.151 402.255 961.398 400.113C961.008 400.732 960.523 401.168 959.943 401.422C959.37 401.669 958.752 401.793 958.088 401.793C956.74 401.793 955.673 401.373 954.885 400.533C954.104 399.693 953.713 398.613 953.713 397.291C953.713 396.021 954.1 394.905 954.875 393.941C955.65 392.978 956.792 392.496 958.303 392.496C960.34 392.496 961.747 393.414 962.521 395.25C962.951 396.259 963.166 397.522 963.166 399.039C963.166 400.751 962.909 402.268 962.395 403.59C961.542 405.79 960.096 406.891 958.059 406.891C956.691 406.891 955.653 406.533 954.943 405.816C954.234 405.1 953.879 404.202 953.879 403.121H955.656ZM958.322 400.25C959.019 400.25 959.654 400.022 960.227 399.566C960.806 399.104 961.096 398.3 961.096 397.154C961.096 396.126 960.835 395.361 960.314 394.859C959.8 394.352 959.143 394.098 958.342 394.098C957.482 394.098 956.799 394.387 956.291 394.967C955.79 395.54 955.539 396.308 955.539 397.271C955.539 398.183 955.76 398.909 956.203 399.449C956.646 399.983 957.352 400.25 958.322 400.25ZM969.328 406.881C967.674 406.881 966.473 406.428 965.725 405.523C964.982 404.612 964.611 403.505 964.611 402.203H966.447C966.525 403.108 966.695 403.766 966.955 404.176C967.411 404.911 968.234 405.279 969.426 405.279C970.35 405.279 971.092 405.032 971.652 404.537C972.212 404.042 972.492 403.404 972.492 402.623C972.492 401.66 972.196 400.986 971.604 400.602C971.018 400.217 970.201 400.025 969.152 400.025C969.035 400.025 968.915 400.029 968.791 400.035C968.674 400.035 968.553 400.038 968.43 400.045V398.492C968.612 398.512 968.765 398.525 968.889 398.531C969.012 398.538 969.146 398.541 969.289 398.541C969.947 398.541 970.487 398.437 970.91 398.229C971.652 397.864 972.023 397.213 972.023 396.275C972.023 395.579 971.776 395.042 971.281 394.664C970.786 394.286 970.21 394.098 969.553 394.098C968.381 394.098 967.57 394.488 967.121 395.27C966.874 395.699 966.734 396.311 966.701 397.105H964.963C964.963 396.064 965.171 395.178 965.588 394.449C966.304 393.147 967.564 392.496 969.367 392.496C970.793 392.496 971.896 392.815 972.678 393.453C973.459 394.085 973.85 395.003 973.85 396.207C973.85 397.066 973.618 397.763 973.156 398.297C972.87 398.629 972.499 398.889 972.043 399.078C972.779 399.28 973.352 399.671 973.762 400.25C974.178 400.823 974.387 401.526 974.387 402.359C974.387 403.694 973.947 404.781 973.068 405.621C972.189 406.461 970.943 406.881 969.328 406.881ZM981.877 401.549V395.211L977.395 401.549H981.877ZM981.906 406.5V403.082H975.773V401.363L982.18 392.477H983.664V401.549H985.725V403.082H983.664V406.5H981.906ZM987.023 406.5C987.089 405.296 987.336 404.247 987.766 403.355C988.202 402.464 989.048 401.653 990.305 400.924L992.18 399.84C993.02 399.352 993.609 398.935 993.947 398.59C994.481 398.049 994.748 397.431 994.748 396.734C994.748 395.921 994.504 395.276 994.016 394.801C993.527 394.319 992.876 394.078 992.062 394.078C990.858 394.078 990.025 394.534 989.562 395.445C989.315 395.934 989.178 396.611 989.152 397.477H987.365C987.385 396.259 987.609 395.266 988.039 394.498C988.801 393.144 990.145 392.467 992.072 392.467C993.674 392.467 994.842 392.9 995.578 393.766C996.32 394.632 996.691 395.595 996.691 396.656C996.691 397.776 996.298 398.733 995.51 399.527C995.054 399.99 994.237 400.549 993.059 401.207L991.721 401.949C991.083 402.301 990.581 402.636 990.217 402.955C989.566 403.521 989.156 404.15 988.986 404.84H996.623V406.5H987.023ZM1003.38 392.457C1004.94 392.457 1006.03 392.864 1006.64 393.678C1007.26 394.485 1007.57 395.318 1007.57 396.178H1005.83C1005.73 395.624 1005.56 395.191 1005.33 394.879C1004.91 394.293 1004.27 394 1003.41 394C1002.43 394 1001.65 394.456 1001.07 395.367C1000.49 396.272 1000.16 397.571 1000.1 399.264C1000.5 398.671 1001.01 398.229 1001.62 397.936C1002.18 397.675 1002.81 397.545 1003.5 397.545C1004.67 397.545 1005.69 397.919 1006.56 398.668C1007.44 399.417 1007.87 400.533 1007.87 402.018C1007.87 403.287 1007.46 404.413 1006.63 405.396C1005.81 406.373 1004.63 406.861 1003.1 406.861C1001.79 406.861 1000.66 406.367 999.709 405.377C998.758 404.381 998.283 402.708 998.283 400.357C998.283 398.619 998.495 397.145 998.918 395.934C999.732 393.616 1001.22 392.457 1003.38 392.457ZM1003.25 405.299C1004.18 405.299 1004.87 404.99 1005.32 404.371C1005.79 403.746 1006.02 403.01 1006.02 402.164C1006.02 401.448 1005.81 400.768 1005.4 400.123C1004.99 399.472 1004.25 399.146 1003.17 399.146C1002.41 399.146 1001.75 399.397 1001.17 399.898C1000.61 400.4 1000.32 401.155 1000.32 402.164C1000.32 403.049 1000.58 403.795 1001.1 404.4C1001.62 404.999 1002.34 405.299 1003.25 405.299ZM1019.67 398.375C1020.44 398.375 1021.05 398.16 1021.49 397.73C1021.92 397.294 1022.14 396.777 1022.14 396.178C1022.14 395.657 1021.93 395.178 1021.52 394.742C1021.1 394.306 1020.46 394.088 1019.61 394.088C1018.76 394.088 1018.15 394.306 1017.78 394.742C1017.4 395.178 1017.21 395.689 1017.21 396.275C1017.21 396.933 1017.45 397.447 1017.94 397.818C1018.43 398.189 1019.01 398.375 1019.67 398.375ZM1019.78 405.299C1020.59 405.299 1021.26 405.081 1021.8 404.645C1022.34 404.202 1022.61 403.544 1022.61 402.672C1022.61 401.767 1022.33 401.08 1021.78 400.611C1021.23 400.143 1020.52 399.908 1019.65 399.908C1018.81 399.908 1018.12 400.149 1017.59 400.631C1017.06 401.106 1016.8 401.767 1016.8 402.613C1016.8 403.342 1017.04 403.974 1017.52 404.508C1018.01 405.035 1018.76 405.299 1019.78 405.299ZM1017.28 399.049C1016.79 398.84 1016.41 398.596 1016.13 398.316C1015.62 397.796 1015.36 397.118 1015.36 396.285C1015.36 395.243 1015.74 394.348 1016.5 393.6C1017.25 392.851 1018.32 392.477 1019.71 392.477C1021.05 392.477 1022.1 392.831 1022.86 393.541C1023.62 394.244 1024.01 395.068 1024.01 396.012C1024.01 396.884 1023.78 397.59 1023.34 398.131C1023.09 398.437 1022.71 398.736 1022.19 399.029C1022.77 399.296 1023.22 399.602 1023.56 399.947C1024.18 400.598 1024.48 401.445 1024.48 402.486C1024.48 403.717 1024.07 404.762 1023.24 405.621C1022.42 406.474 1021.25 406.9 1019.74 406.9C1018.38 406.9 1017.23 406.533 1016.28 405.797C1015.34 405.055 1014.88 403.98 1014.88 402.574C1014.88 401.747 1015.08 401.035 1015.48 400.436C1015.88 399.83 1016.48 399.368 1017.28 399.049ZM1030.56 406.881C1028.9 406.881 1027.7 406.428 1026.96 405.523C1026.21 404.612 1025.84 403.505 1025.84 402.203H1027.68C1027.76 403.108 1027.93 403.766 1028.19 404.176C1028.64 404.911 1029.46 405.279 1030.66 405.279C1031.58 405.279 1032.32 405.032 1032.88 404.537C1033.44 404.042 1033.72 403.404 1033.72 402.623C1033.72 401.66 1033.43 400.986 1032.83 400.602C1032.25 400.217 1031.43 400.025 1030.38 400.025C1030.27 400.025 1030.15 400.029 1030.02 400.035C1029.9 400.035 1029.78 400.038 1029.66 400.045V398.492C1029.84 398.512 1030 398.525 1030.12 398.531C1030.24 398.538 1030.38 398.541 1030.52 398.541C1031.18 398.541 1031.72 398.437 1032.14 398.229C1032.88 397.864 1033.25 397.213 1033.25 396.275C1033.25 395.579 1033.01 395.042 1032.51 394.664C1032.02 394.286 1031.44 394.098 1030.78 394.098C1029.61 394.098 1028.8 394.488 1028.35 395.27C1028.1 395.699 1027.96 396.311 1027.93 397.105H1026.19C1026.19 396.064 1026.4 395.178 1026.82 394.449C1027.53 393.147 1028.79 392.496 1030.6 392.496C1032.02 392.496 1033.13 392.815 1033.91 393.453C1034.69 394.085 1035.08 395.003 1035.08 396.207C1035.08 397.066 1034.85 397.763 1034.39 398.297C1034.1 398.629 1033.73 398.889 1033.27 399.078C1034.01 399.28 1034.58 399.671 1034.99 400.25C1035.41 400.823 1035.62 401.526 1035.62 402.359C1035.62 403.694 1035.18 404.781 1034.3 405.621C1033.42 406.461 1032.17 406.881 1030.56 406.881ZM1042.35 392.457C1043.91 392.457 1045 392.864 1045.61 393.678C1046.23 394.485 1046.54 395.318 1046.54 396.178H1044.8C1044.69 395.624 1044.53 395.191 1044.3 394.879C1043.88 394.293 1043.23 394 1042.38 394C1041.39 394 1040.61 394.456 1040.03 395.367C1039.45 396.272 1039.13 397.571 1039.06 399.264C1039.47 398.671 1039.98 398.229 1040.59 397.936C1041.15 397.675 1041.77 397.545 1042.46 397.545C1043.63 397.545 1044.66 397.919 1045.53 398.668C1046.4 399.417 1046.84 400.533 1046.84 402.018C1046.84 403.287 1046.42 404.413 1045.6 405.396C1044.77 406.373 1043.59 406.861 1042.06 406.861C1040.75 406.861 1039.62 406.367 1038.67 405.377C1037.72 404.381 1037.25 402.708 1037.25 400.357C1037.25 398.619 1037.46 397.145 1037.88 395.934C1038.7 393.616 1040.18 392.457 1042.35 392.457ZM1042.22 405.299C1043.14 405.299 1043.83 404.99 1044.29 404.371C1044.75 403.746 1044.98 403.01 1044.98 402.164C1044.98 401.448 1044.78 400.768 1044.37 400.123C1043.96 399.472 1043.21 399.146 1042.13 399.146C1041.38 399.146 1040.71 399.397 1040.14 399.898C1039.57 400.4 1039.29 401.155 1039.29 402.164C1039.29 403.049 1039.55 403.795 1040.06 404.4C1040.58 404.999 1041.3 405.299 1042.22 405.299ZM1058.09 392.75V394.283C1057.64 394.719 1057.04 395.478 1056.29 396.559C1055.55 397.639 1054.89 398.805 1054.32 400.055C1053.75 401.272 1053.32 402.382 1053.03 403.385C1052.84 404.029 1052.6 405.068 1052.3 406.5H1050.35C1050.8 403.831 1051.77 401.174 1053.28 398.531C1054.18 396.982 1055.11 395.644 1056.1 394.518H1048.36V392.75H1058.09ZM1061.23 402.936C1061.35 403.938 1061.82 404.632 1062.63 405.016C1063.05 405.211 1063.53 405.309 1064.07 405.309C1065.12 405.309 1065.89 404.977 1066.39 404.312C1066.89 403.648 1067.14 402.913 1067.14 402.105C1067.14 401.129 1066.84 400.374 1066.24 399.84C1065.65 399.306 1064.94 399.039 1064.1 399.039C1063.5 399.039 1062.98 399.156 1062.54 399.391C1062.11 399.625 1061.74 399.951 1061.44 400.367L1059.91 400.279L1060.98 392.75H1068.24V394.449H1062.3L1061.7 398.336C1062.03 398.089 1062.34 397.903 1062.63 397.779C1063.15 397.564 1063.75 397.457 1064.44 397.457C1065.72 397.457 1066.81 397.87 1067.7 398.697C1068.59 399.524 1069.04 400.572 1069.04 401.842C1069.04 403.163 1068.62 404.329 1067.8 405.338C1066.99 406.347 1065.69 406.852 1063.9 406.852C1062.76 406.852 1061.75 406.533 1060.87 405.895C1060 405.25 1059.51 404.264 1059.41 402.936H1061.23Z" fill="white"/>
</g>
<defs>
<linearGradient id="paint0_linear_79_29" x1="155.824" y1="171.425" x2="201.368" y2="171.425" gradientUnits="userSpaceOnUse">
<stop stop-color="#0E46A0"/>
<stop offset="1" stop-color="#2D91E2"/>
</linearGradient>
<linearGradient id="paint1_linear_79_29" x1="228.854" y1="77.5205" x2="228.854" y2="172.239" gradientUnits="userSpaceOnUse">
<stop stop-color="#0E46A0"/>
<stop offset="1" stop-color="#2D91E2"/>
</linearGradient>
<linearGradient id="paint2_linear_79_29" x1="229.234" y1="172.749" x2="324.459" y2="172.749" gradientUnits="userSpaceOnUse">
<stop stop-color="#2D91E2"/>
<stop offset="1" stop-color="#0E46A0"/>
</linearGradient>
<linearGradient id="paint3_linear_79_29" x1="218.183" y1="241.175" x2="264.589" y2="241.175" gradientUnits="userSpaceOnUse">
<stop stop-color="#2D91E2"/>
<stop offset="1" stop-color="#0E46A0"/>
</linearGradient>
<linearGradient id="paint4_linear_79_29" x1="999" y1="160" x2="496.5" y2="160" gradientUnits="userSpaceOnUse">
<stop stop-color="#2D91E2"/>
<stop offset="1" stop-color="#0E46A0"/>
</linearGradient>
<clipPath id="clip0_79_29">
<rect width="1131" height="438" fill="white" transform="translate(0.6875)"/>
</clipPath>
</defs>
</svg>
